<?xml version="1.0" encoding="utf-8"?>
<!-- Generator: Adobe Illustrator 21.1.0, SVG Export Plug-In . SVG Version: 6.00 Build 0)  -->
<svg version="1.1" id="Layer_1" xmlns="http://www.w3.org/2000/svg" xmlns:xlink="http://www.w3.org/1999/xlink" x="0px" y="0px"
	 width="166.3px" height="408.9px" viewBox="0 0 166.3 408.9" style="enable-background:new 0 0 166.3 408.9;" xml:space="preserve"
	>
<style type="text/css">
	.st0{display:none;}
	.st1{display:inline;}
	.st2{fill:#C3ECF6;}
	.st3{fill:#9E2525;}
	.st4{fill:#FFC061;}
	.st5{fill:#FFCE3D;}
	.st6{fill:#FFE494;}
	.st7{fill:#FFCC33;}
	.st8{fill:#7D4725;}
	.st9{fill:#BF232D;}
	.st10{opacity:6.000000e-02;fill:#FFFFFF;}
	.st11{fill:#A11D26;}
	.st12{opacity:0.81;fill:#F6F6F6;}
	.st13{fill:url(#SVGID_1_);}
	.st14{fill:url(#SVGID_2_);}
	.st15{opacity:0.4;fill:#FFDD7A;}
	.st16{opacity:0.4;fill:#D1A72A;}
	.st17{opacity:0.2;fill:#FFFFFF;}
	.st18{display:inline;fill:#095E66;}
	.st19{fill:#52B561;}
	.st20{fill:#87FF9D;}
	.st21{fill:#35D44E;}
	.st22{fill:#6FD97F;}
	.st23{fill:url(#SVGID_3_);}
	.st24{fill:url(#SVGID_4_);}
	.st25{opacity:0.73;fill:#47BF5A;}
	.st26{opacity:0.73;fill:#7BD489;}
	.st27{opacity:0.3;}
	.st28{fill:#FFFFFF;}
	.st29{fill:#E6E6E6;}
	.st30{fill:#99411D;}
	.st31{fill:url(#SVGID_5_);}
	.st32{fill:url(#SVGID_6_);}
	.st33{opacity:0.56;}
	.st34{opacity:0.4;fill:#E3A1AD;}
	.st35{opacity:0.4;fill:#BF3C55;}
	.st36{fill:#FFB433;}
	.st37{fill:#FFD65C;}
	.st38{fill:url(#SVGID_7_);}
	.st39{fill:url(#SVGID_8_);}
	.st40{opacity:0.6;}
	.st41{fill:#5C2727;}
	.st42{fill:url(#SVGID_9_);}
	.st43{fill:url(#SVGID_10_);}
	.st44{fill:#174859;}
	.st45{fill:url(#SVGID_11_);}
	.st46{fill:url(#SVGID_12_);}
	.st47{opacity:0.25;}
	.st48{fill:#249191;}
	.st49{fill:url(#SVGID_13_);}
	.st50{fill:#61C265;}
	.st51{fill:#51C256;}
	.st52{opacity:0.63;}
	.st53{fill:#9C3333;}
	.st54{opacity:0.81;fill:#C3ECF6;}
	.st55{fill:url(#SVGID_14_);}
	.st56{fill:url(#SVGID_15_);}
	.st57{fill:#ED8290;}
	.st58{fill:#C43549;}
	.st59{fill:url(#SVGID_16_);}
	.st60{fill:url(#SVGID_17_);}
	.st61{fill:url(#SVGID_18_);}
	.st62{fill:url(#SVGID_19_);}
	.st63{fill:#E3788C;}
	.st64{fill:#C46073;}
	.st65{font-family:'Lato-Semibold';}
	.st66{font-size:23.6354px;}
</style>
<g class="st0">
	<g class="st1">
		<path class="st2" d="M141.3,277.1c0-28-12.8-52.9-18.5-67c-8.4-20.9,1.3-63.5,5.7-80.4c0.9-3.6-1.8-7.1-5.5-7.1l-87.6,0
			c-3.7,0-6.4,3.5-5.5,7.1c4.4,16.9,14.1,59.5,5.7,80.4c-5.7,14.2-18.5,39.1-18.6,67c0,28.7,21.8,52.6,50.5,57.7l0,13.5
			c-5.7,3.7-9.5,10.2-9.5,17.5c0,6.7,3.1,12.6,7.9,16.4l-29.3,16.6c-4.6,2.6-2.8,9.6,2.5,9.6l79.6,0c5.3,0,7.2-7,2.5-9.6l-29.3-16.6
			c4.8-3.8,8-9.8,8-16.4c0-7.3-3.8-13.8-9.5-17.5l0-13.5C119.5,329.6,141.3,305.8,141.3,277.1z"/>
		<path class="st3" d="M69.3,272.5l-7.5-1.8c-0.3-0.1-0.6-0.4-0.5-0.8l52.7-214.1c0.1-0.3,0.4-0.6,0.8-0.5l7.5,1.8
			c0.3,0.1,0.6,0.4,0.5,0.8L70.1,272C70,272.3,69.7,272.6,69.3,272.5z"/>
		<g>
			<g>
				<path class="st4" d="M79,201.6L33.3,56.5l0,0c1.7,1.3,3,3.1,3.7,5.1L80.9,201L79,201.6z"/>
			</g>
			<g>
				<path class="st5" d="M44.8,116.3c11.4,2.7,22.9-4.5,25.5-15.9l-41.4-9.6C26.2,102.2,33.3,113.6,44.8,116.3z"/>
				<path class="st6" d="M45,115.3c10.9,2.5,21.8-4.3,24.3-15.1L29.9,91C27.3,101.9,34.1,112.7,45,115.3z"/>
				<path class="st7" d="M46.2,112.5c4.1,0.8,8.2,0.1,11.6-1.8l-8.2-13.1L46.2,112.5z"/>
				<path class="st7" d="M50.9,96.7l8.2,13.2c3.3-2.2,5.9-5.6,7-9.7L50.9,96.7z"/>
				<path class="st7" d="M44.7,112.1l3.4-14.8l-12.8,8C37.5,108.4,40.7,110.9,44.7,112.1z"/>
				<path class="st7" d="M47.4,95.9l-14.8-3.4c-0.8,4.1,0,8.1,1.9,11.5L47.4,95.9z"/>
			</g>
			<g>
				<g>
					<path class="st8" d="M53.5,128.9c-0.1,0.3-0.4,0.6-0.8,0.5c-0.3,0-6.3-1.1-11.1-4.1c-0.3-0.2-0.4-0.6-0.2-1
						c0.2-0.3,0.6-0.4,1-0.2c4.6,2.8,10.5,3.9,10.6,3.9C53.3,128.1,53.5,128.4,53.5,128.9C53.5,128.8,53.5,128.8,53.5,128.9z"/>
				</g>
				<g>
					
						<ellipse transform="matrix(0.2638 -0.9646 0.9646 0.2638 -83.1291 150.5188)" class="st9" cx="57" cy="129.7" rx="10.7" ry="10.7"/>
					
						<ellipse transform="matrix(0.2638 -0.9646 0.9646 0.2638 -75.7419 147.5324)" class="st10" cx="58.8" cy="123.4" rx="3.1" ry="5.6"/>
					<path class="st11" d="M55.3,136c-5-1.4-8.2-6.1-7.9-11.1c-0.3,0.6-0.6,1.3-0.8,2c-1.6,5.7,1.8,11.6,7.5,13.2
						c5.7,1.6,11.6-1.8,13.2-7.5c0.2-0.7,0.3-1.4,0.4-2.1C65.5,134.9,60.3,137.3,55.3,136z"/>
				</g>
			</g>
			<g>
				<g>
					<path class="st8" d="M40.1,81.3c-0.1,0.3-0.5,0.5-0.9,0.4c-0.2-0.1-6-2.1-10.3-5.8c-0.3-0.2-0.3-0.7-0.1-1
						c0.3-0.3,0.7-0.3,1-0.1c4.1,3.5,9.8,5.5,9.8,5.6C40.1,80.4,40.3,80.8,40.1,81.3C40.1,81.2,40.1,81.2,40.1,81.3z"/>
				</g>
				<g>
					
						<ellipse transform="matrix(0.4133 -0.9106 0.9106 0.4133 -49.7568 88.1493)" class="st9" cx="43.5" cy="82.7" rx="10.7" ry="10.7"/>
					
						<ellipse transform="matrix(0.4133 -0.9106 0.9106 0.4133 -42.7187 87.1079)" class="st10" cx="46.2" cy="76.7" rx="3.1" ry="5.6"/>
					<path class="st11" d="M40.8,88.6c-4.7-2.1-7.1-7.3-6-12.2c-0.4,0.6-0.8,1.2-1.1,1.8c-2.4,5.4-0.1,11.7,5.3,14.2
						c5.4,2.4,11.7,0.1,14.2-5.3c0.3-0.7,0.5-1.3,0.7-2C51,89.2,45.6,90.7,40.8,88.6z"/>
				</g>
			</g>
		</g>
		<path class="st12" d="M141.3,277.1c0-28-12.8-52.9-18.5-67c-8.4-20.9,1.3-63.5,5.7-80.4c0.9-3.6-1.8-7.1-5.5-7.1l-87.6,0
			c-3.7,0-6.4,3.5-5.5,7.1c4.4,16.9,14.1,59.5,5.7,80.4c-5.7,14.2-18.5,39.1-18.6,67c0,27,19.3,49.8,45.6,56.6c2.9,0.8,5,3.3,5,6.3
			l0,5.1c0,1.9-0.9,3.6-2.3,4.9c-4.4,3.8-7.2,9.5-7.2,15.8c0,4.2,1.2,8.1,3.4,11.4c2,3,1,7.1-2.2,8.9l-22.5,12.7
			c-4.6,2.6-2.8,9.6,2.5,9.6l79.6,0c5.3,0,7.2-7,2.5-9.6L99,386c-3.2-1.8-4.2-5.9-2.2-8.9c2.1-3.3,3.4-7.2,3.4-11.4
			c0-6.3-2.8-11.9-7.1-15.8c-1.4-1.2-2.3-3-2.3-4.9l0-5.1c0-3,2.1-5.5,5-6.3C122,326.8,141.3,304.1,141.3,277.1z"/>
		
			<linearGradient id="SVGID_1_" gradientUnits="userSpaceOnUse" x1="79.2286" y1="137.7678" x2="79.2286" y2="322.4023" gradientTransform="matrix(1 4.000000e-04 -4.000000e-04 1 0.11 -9.025901e-02)">
			<stop  offset="0" style="stop-color:#FFD65C"/>
			<stop  offset="0.3253" style="stop-color:#FFD149"/>
			<stop  offset="0.7045" style="stop-color:#FFCD39"/>
			<stop  offset="1" style="stop-color:#FFCC33"/>
		</linearGradient>
		<path class="st13" d="M66.9,322.1c-22.8-5.3-39-24.6-39-46.9c0-22.1,8.7-42.5,15-57.4c1.2-2.8,2.3-5.3,3.2-7.6
			c7.9-19.7,3.5-43.6-1.7-66.3c-0.7-3.2,1.7-6.3,5-6.3l59.9,0c3.3,0,5.7,3.1,5,6.3c-5.3,22.8-9.7,46.6-1.8,66.3
			c0.9,2.3,2,4.8,3.2,7.6c6.3,14.9,15,35.3,15,57.4c0,22.3-16.3,41.6-39,46.8C90.5,322.4,68,322.4,66.9,322.1z"/>
		
			<linearGradient id="SVGID_2_" gradientUnits="userSpaceOnUse" x1="79.2286" y1="230.9808" x2="79.2286" y2="322.4023" gradientTransform="matrix(1 4.000000e-04 -4.000000e-04 1 0.11 -9.025901e-02)">
			<stop  offset="0" style="stop-color:#FFCC33;stop-opacity:0"/>
			<stop  offset="7.890350e-02" style="stop-color:#FDB935;stop-opacity:7.890350e-02"/>
			<stop  offset="0.3027" style="stop-color:#F7873B;stop-opacity:0.3027"/>
			<stop  offset="0.5141" style="stop-color:#F35F40;stop-opacity:0.5141"/>
			<stop  offset="0.707" style="stop-color:#F04343;stop-opacity:0.707"/>
			<stop  offset="0.8752" style="stop-color:#EE3245;stop-opacity:0.8752"/>
			<stop  offset="1" style="stop-color:#ED2C46"/>
		</linearGradient>
		<path class="st14" d="M37.6,230.9c-5,12.9-9.7,28.1-9.7,44.4c0,22.3,16.2,41.6,39,46.9c1.1,0.3,23.6,0.3,24.7,0
			c22.8-5.3,39-24.6,39-46.8c0-16.2-4.7-31.5-9.6-44.4L37.6,230.9z"/>
		<circle class="st15" cx="86.1" cy="220.8" r="8.9"/>
		<circle class="st15" cx="84.4" cy="181" r="7.2"/>
		<circle class="st15" cx="67.7" cy="266.9" r="11.5"/>
		<circle class="st15" cx="113.3" cy="279.8" r="5"/>
		<circle class="st16" cx="97.5" cy="155.8" r="5.4"/>
		<circle class="st16" cx="102.9" cy="252.8" r="5.4"/>
		<circle class="st16" cx="78.4" cy="298.7" r="9"/>
		<path class="st17" d="M40.5,250.6c-5.7,28,2.4,43.2,2.4,43.2s-2.9-21.7,7.7-47.9c8.1-20,13.9-26.7,18.3-45.9
			c9.1-39.3-6.3-77.5-6.3-77.5l-18.2,0c0,0,16,49,12.1,76.5C54.4,214.2,45.9,224.2,40.5,250.6z"/>
	</g>
	<text transform="matrix(1 0 0 1 8.2683 444.9156)"><tspan x="0" y="0" class="st18 st65 st66">M</tspan><tspan x="21.8" y="0" class="st18 st65 st66">an</tspan><tspan x="47" y="0" class="st18 st65 st66">g</tspan><tspan x="59.1" y="0" class="st18 st65 st66">o Cherr</tspan><tspan x="137.5" y="0" class="st18 st65 st66">y</tspan></text>
</g>
<g class="st0">
	<g class="st1">
		<path class="st2" d="M151.2,233.7c0-34.1-7.8-86.6-10.6-104.4c-0.6-3.6-3.4-6.2-6.7-6.2h-45h-45c-3.3,0-6.1,2.6-6.7,6.2
			c-2.8,17.8-10.6,70.3-10.6,104.4c0,68.9,27.3,89.7,56.9,92.8v59.7l-29.7,17.6c-2.4,1.4-1.4,5.1,1.4,5.1h67.5
			c2.8,0,3.8-3.7,1.4-5.1l-29.7-17.6v-59.7C123.9,323.3,151.2,302.6,151.2,233.7z"/>
		<path class="st3" d="M84.7,265.5L84.7,265.5c-2.2-0.6-3.6-3-3.1-5.5l46.9-206.5c0.5-2.4,2.8-3.9,5-3.3l0,0c2.2,0.6,3.6,3,3.1,5.5
			L89.8,262.2C89.2,264.6,86.9,266.1,84.7,265.5z"/>
		<path class="st3" d="M61.7,35.4L61.7,35.4c-2.2,0.6-3.6,3-3.1,5.5l46.9,206.5c0.5,2.4,2.8,3.9,5,3.3l0,0c2.2-0.6,3.6-3,3.1-5.5
			L66.7,38.7C66.2,36.3,63.9,34.8,61.7,35.4z"/>
		<g>
			<path class="st19" d="M51.6,108.1c-1.2-3.1-4-6.3-6.1-8.4c-0.6-0.6-1.4-0.2-1.7,0.5c0,0.1-0.1,0-0.2-0.1
				c-4.2-4.5-8.5-7.8-11.2-9.7c-0.7-0.5-1.7-0.1-1.7,0.7c0,0.1-0.1,0.2-0.2,0c-7.9-5.3-15.1-8.9-15.1-8.9s0,0.1,0,0.2
				c-0.1-0.1-0.2-0.1-0.2-0.1s0.6,8,2.5,17.3c0,0.2,0,0.3-0.1,0.2c-0.8-0.3-1.5,0.6-1.3,1.4c0.7,3.2,2.1,8.5,4.7,14
				c0.1,0.2,0.1,0.2,0,0.2c-0.8,0-1.4,0.6-1.1,1.4c1.1,2.7,3,6.5,5.5,8.8c0.1,0.1,0.1,0.2,0,0.2c-1-0.1-1.6,1.1-0.9,1.8
				c2.2,2.2,5.5,4.8,9.3,6.2c8.2,2.9,17.1,4.1,18.4,3.2c1.2-0.8,4.7-10.4,5.1-19c0.2-4.4-1.7-8.6-3.3-11.3c-0.5-0.9-2-0.6-2,0.5
				C51.8,108.1,51.7,108.5,51.6,108.1z"/>
			<path class="st20" d="M45.9,127.1c-1.7-2.5-3.6-5.2-5.5-8c2.8-4.9,3-12.7,2.9-12.7c0,0-0.8,4.1-1.4,6.1c-0.5,2-1.4,3.8-2.2,5.7
				c-2.3-3.3-4.6-6.8-6.8-9.9c0,0,0,0,0-0.1c0.4-3.2-1.2-10.4-1.2-10.1c0.2,1.8,0.7,6.4,0.4,9.1c-4.5-6.5-7.9-11.4-8-11.3
				c-0.1,0.1,2.6,4.2,6.3,9.9l-2.1,0c-1.2,0-2.3,0-3.5-0.5c-1.1-0.5-3.3-1.8-3.3-1.8s2.6,2.4,4.3,2.9c1,0.3,2,0.1,3,0.3
				c1,0.1,1.3,0,2.2,0.2c1.7,2.6,4,6.1,5.9,8.9c-0.8-0.2-1.7-0.1-2.5,0.1c-1.3,0.3-2.5,0.7-3.8,0.4c-1.2-0.2-3.7-1.2-3.7-1.1
				c0,0.1,3,1.9,4.7,2c2.1,0,4-1,6-0.3l0,0c2.6,3.9,5.2,7.8,7.4,11.2c-4.7-1.4-12.4-0.6-12.4-0.6s8.7,0.3,13.2,1.8l0,0
				c3.3,4.9,8.1,12,8.1,12c0.2,0.3,0.6,0.4,1,0.2c0.3-0.2,0.4-0.6,0.2-0.9c0,0-5-7.2-8.4-12.2l0,0c0.2-4.7,2.8-12.3,2.8-12.3
				C48.2,119.8,46.2,123,45.9,127.1z"/>
		</g>
		<g>
			<path class="st19" d="M67.7,135c2.7-1.2,5.4-3.7,7.1-5.6c0.5-0.5,0.2-1.2-0.5-1.4c-0.1,0,0-0.1,0.1-0.2c3.8-3.8,6.5-7.7,8-10.1
				c0.4-0.6,0-1.5-0.7-1.5c-0.1,0-0.1-0.1,0-0.2c4.3-7.1,7.2-13.5,7.2-13.5s-0.1,0-0.2,0c0.1-0.1,0.1-0.2,0.1-0.2s-6.9,0.8-15,2.8
				c-0.2,0-0.2,0-0.2-0.1c0.2-0.7-0.5-1.3-1.2-1.1c-2.8,0.7-7.3,2.1-12.1,4.6c-0.1,0.1-0.2,0.1-0.2,0c0-0.7-0.6-1.2-1.2-0.9
				c-2.3,1.1-5.5,2.9-7.4,5.1c-0.1,0.1-0.2,0.1-0.2,0c0-0.9-1-1.4-1.6-0.7c-1.8,2-4,5-5,8.3c-2.2,7.2-3,15-2.2,16.1
				c0.7,1,9.2,3.7,16.7,3.7c3.8,0,7.4-1.8,9.7-3.3c0.8-0.5,0.4-1.7-0.5-1.7C67.7,135.2,67.4,135.2,67.7,135z"/>
			<path class="st20" d="M51,130.8c2.1-1.5,4.4-3.3,6.8-5.1c4.3,2.2,11.1,2.2,11.1,2.1c0,0-3.6-0.6-5.4-1c-1.8-0.4-3.4-1.1-5-1.7
				c2.8-2.1,5.7-4.3,8.4-6.3c0,0,0,0,0.1,0c2.8,0.3,9-1.4,8.8-1.4c-1.6,0.2-5.6,0.9-7.9,0.7c5.5-4.1,9.6-7.3,9.6-7.4
				c-0.1-0.1-3.6,2.4-8.4,5.8l0-1.8c0-1.1-0.1-2,0.3-3c0.4-0.9,1.4-3,1.4-3s-2,2.4-2.4,3.8c-0.2,0.9,0,1.7-0.1,2.6
				c-0.1,0.9,0.1,1.1-0.1,1.9c-2.2,1.6-5.1,3.7-7.5,5.4c0.1-0.7,0-1.4-0.2-2.2c-0.3-1.1-0.7-2.1-0.5-3.3c0.1-1,0.9-3.2,0.8-3.3
				c-0.1,0-1.6,2.6-1.5,4.2c0,1.8,1,3.4,0.5,5.2l0,0c-3.3,2.4-6.6,4.8-9.5,6.8c1-4.1,0.1-10.8,0.1-10.8s0,7.6-1.1,11.6l0,0
				c-4.2,3-10.2,7.5-10.2,7.5c-0.3,0.2-0.3,0.6-0.1,0.8c0.2,0.3,0.6,0.3,0.8,0.1c0,0,6.1-4.6,10.3-7.7l0,0c4.1,0,10.8,2,10.8,2
				C57.4,132.5,54.6,130.9,51,130.8z"/>
		</g>
		<g>
			
				<ellipse transform="matrix(1 -2.302975e-03 2.302975e-03 1 -0.2842 9.352902e-02)" class="st21" cx="40.5" cy="123.5" rx="23.3" ry="23.3"/>
			
				<ellipse transform="matrix(1 -2.304713e-03 2.304713e-03 1 -0.2844 9.359960e-02)" class="st22" cx="40.5" cy="123.5" rx="22.2" ry="22.2"/>
			<g>
				<path class="st21" d="M39.8,104.6c-4.6,0.2-8.8,1.9-12,4.8l12,11.9L39.8,104.6z"/>
				<path class="st21" d="M38.8,122.6l-12.1-12c-3,3.2-4.9,7.4-5.1,12.1L38.8,122.6z"/>
				<path class="st21" d="M38.6,124.3l-17,0c0.2,4.6,2.1,8.8,5,12L38.6,124.3z"/>
				<path class="st21" d="M41.6,104.6l0,16.7l11.7-11.7C50.2,106.7,46.1,104.8,41.6,104.6z"/>
				<path class="st21" d="M42.7,122.6l16.6,0c-0.2-4.5-2-8.6-4.9-11.8L42.7,122.6z"/>
				<path class="st21" d="M42.9,124.3L54.6,136c2.8-3.1,4.5-7.2,4.7-11.7L42.9,124.3z"/>
				<path class="st21" d="M39.9,125.5l-12,12.1c3.2,2.9,7.4,4.7,12.1,4.8L39.9,125.5z"/>
				<path class="st21" d="M41.6,125.4l0,16.9c4.6-0.3,8.7-2.2,11.8-5.1L41.6,125.4z"/>
			</g>
		</g>
		<path class="st12" d="M151.2,233.7c0-34.1-7.8-86.6-10.6-104.4c-0.6-3.6-3.4-6.2-6.7-6.2h-45h-45c-3.3,0-6.1,2.6-6.7,6.2
			c-2.8,17.8-10.6,70.3-10.6,104.4c0,60.8,21.2,84.1,46.6,90.9c6.1,1.6,10.3,7,10.3,13.3v35.5c0,7.9-4.2,15.3-11,19.3l-18.8,11.1
			c-2.4,1.4-1.4,5.1,1.4,5.1h67.5c2.8,0,3.8-3.7,1.4-5.1l-18.8-11.1c-6.8-4-11-11.4-11-19.3v-35.5c0-6.3,4.3-11.7,10.3-13.3
			C129.9,317.8,151.2,294.4,151.2,233.7z"/>
		<linearGradient id="SVGID_3_" gradientUnits="userSpaceOnUse" x1="88.8491" y1="138.9088" x2="88.8491" y2="310.6161">
			<stop  offset="0" style="stop-color:#96FFA6"/>
			<stop  offset="0.159" style="stop-color:#82FF96"/>
			<stop  offset="0.7949" style="stop-color:#35D44E"/>
		</linearGradient>
		<path class="st23" d="M84.3,310.6h9.2c25-2.6,48.1-20.2,48.1-78.3c0-28.8-6.6-73.1-8.9-88.2c-0.5-3-2.9-5.2-5.7-5.2h-38h-38
			c-2.8,0-5.2,2.2-5.7,5.2c-2.4,15.1-8.9,59.4-8.9,88.2C36.2,290.5,59.3,308,84.3,310.6z"/>
		<path class="st17" d="M48.9,268.1c3.8-43.4,12.5-124.3,16.5-145H52C48.2,143,38.1,224.8,48.9,268.1z"/>
		<linearGradient id="SVGID_4_" gradientUnits="userSpaceOnUse" x1="88.8491" y1="231.9839" x2="88.8491" y2="310.6161">
			<stop  offset="0" style="stop-color:#35D44E;stop-opacity:0"/>
			<stop  offset="1" style="stop-color:#1F782C"/>
		</linearGradient>
		<path class="st24" d="M36.2,232c0,0.1,0,0.2,0,0.3c0,58.2,23,75.7,48.1,78.3h9.2c25-2.6,48.1-20.2,48.1-78.3c0-0.1,0-0.2,0-0.3
			H36.2z"/>
		<circle class="st25" cx="79" cy="158.9" r="7.7"/>
		<circle class="st25" cx="114.6" cy="167.4" r="8.5"/>
		<circle class="st25" cx="75.6" cy="222.1" r="11.4"/>
		<circle class="st26" cx="116.9" cy="262.1" r="8.1"/>
		<g class="st27">
			<path class="st28" d="M122,209.1l-13.6-6.8c-1.3-0.7-2.9-0.1-3.6,1.2L98,217.1c-0.3,0.6-0.4,1.4-0.1,2.1l1.6,4.6
				c0.2,0.7,0.7,1.2,1.3,1.5l13.6,6.7c1.3,0.7,2.9,0.1,3.6-1.2l6.7-13.6c0.3-0.6,0.4-1.4,0.1-2l-1.5-4.7
				C123.1,209.9,122.6,209.4,122,209.1z"/>
			<path class="st29" d="M124.8,215.2l-1.5-4.7c-0.1-0.4-0.3-0.7-0.5-0.9c0,0.4-0.1,0.7-0.3,1.1l-6.7,13.6c-0.7,1.3-2.3,1.9-3.6,1.2
				l-13.6-6.7c-0.3-0.2-0.6-0.4-0.9-0.7c0,0.4,0,0.7,0.1,1.1l1.6,4.6c0.2,0.7,0.7,1.2,1.3,1.5l13.6,6.7c1.3,0.7,2.9,0.1,3.6-1.2
				l6.7-13.6C124.9,216.6,125,215.9,124.8,215.2z"/>
		</g>
		<g class="st27">
			<path class="st28" d="M89.7,177.3l-13.6-6.8c-1.3-0.7-2.9-0.1-3.6,1.2l-6.8,13.6c-0.3,0.6-0.4,1.4-0.1,2.1l1.6,4.6
				c0.2,0.7,0.7,1.2,1.3,1.5l13.6,6.7c1.3,0.7,2.9,0.1,3.6-1.2l6.7-13.6c0.3-0.6,0.4-1.4,0.1-2l-1.5-4.7
				C90.8,178.2,90.3,177.6,89.7,177.3z"/>
			<path class="st29" d="M92.5,183.5l-1.5-4.7c-0.1-0.4-0.3-0.7-0.5-0.9c0,0.4-0.1,0.7-0.3,1.1l-6.7,13.6c-0.7,1.3-2.3,1.9-3.6,1.2
				L66.2,187c-0.3-0.2-0.6-0.4-0.9-0.7c0,0.4,0,0.7,0.1,1.1l1.6,4.6c0.2,0.7,0.7,1.2,1.3,1.5l13.6,6.7c1.3,0.7,2.9,0.1,3.6-1.2
				l6.7-13.6C92.6,184.9,92.7,184.1,92.5,183.5z"/>
		</g>
		<g class="st27">
			<path class="st28" d="M89.8,255.6l-13.6-6.8c-1.3-0.7-2.9-0.1-3.6,1.2l-6.8,13.6c-0.3,0.6-0.4,1.4-0.1,2.1l1.6,4.6
				c0.2,0.7,0.7,1.2,1.3,1.5l13.6,6.7c1.3,0.7,2.9,0.1,3.6-1.2l6.7-13.6c0.3-0.6,0.4-1.4,0.1-2l-1.5-4.7
				C91,256.5,90.5,255.9,89.8,255.6z"/>
			<path class="st29" d="M92.6,261.8l-1.5-4.7c-0.1-0.4-0.3-0.7-0.5-0.9c0,0.4-0.1,0.7-0.3,1.1l-6.7,13.6c-0.7,1.3-2.3,1.9-3.6,1.2
				l-13.6-6.7c-0.3-0.2-0.6-0.4-0.9-0.7c0,0.4,0,0.7,0.1,1.1l1.6,4.6c0.2,0.7,0.7,1.2,1.3,1.5l13.6,6.7c1.3,0.7,2.9,0.1,3.6-1.2
				l6.7-13.6C92.8,263.2,92.9,262.4,92.6,261.8z"/>
		</g>
	</g>
	<text transform="matrix(1 0 0 1 54.9591 444.9155)"><tspan x="0" y="0" class="st18 st65 st66">M</tspan><tspan x="21.8" y="0" class="st18 st65 st66">oji</tspan><tspan x="47" y="0" class="st18 st65 st66">t</tspan><tspan x="55.5" y="0" class="st18 st65 st66">o</tspan></text>
</g>
<g class="st0">
	<g class="st1">
		<path class="st2" d="M139,403.1H25.5c-4.3,0-7.8-3.5-7.8-7.8V119.6c0-2.1,1.7-3.7,3.7-3.7H143c2.1,0,3.7,1.7,3.7,3.7v275.8
			C146.7,399.6,143.2,403.1,139,403.1z"/>
		<path class="st30" d="M84.2,267.5l-9-2.2c-0.4-0.1-0.7-0.5-0.6-0.9L138,6.7c0.1-0.4,0.5-0.7,0.9-0.6l9,2.2
			c0.4,0.1,0.7,0.5,0.6,0.9L85.2,267C85.1,267.4,84.7,267.6,84.2,267.5z"/>
		<g>
			<g>
				<path class="st19" d="M51.8,113.8c-0.3-3.3-2.1-7.2-3.5-9.7c-0.4-0.7-1.2-0.6-1.7,0c0,0.1-0.1,0-0.2-0.1
					c-2.7-5.5-6-9.9-8.1-12.4c-0.5-0.6-1.6-0.6-1.9,0.2c0,0.1-0.1,0.1-0.2,0c-6.1-7.3-12-12.7-12-12.7s0,0.1,0,0.2
					C24,79,23.9,79,23.9,79s-1.7,7.8-2.5,17.3c0,0.2-0.1,0.2-0.2,0.2c-0.6-0.5-1.6,0.1-1.6,0.9c-0.2,3.3-0.4,8.7,0.6,14.8
					c0,0.2,0,0.2-0.1,0.2c-0.8-0.2-1.5,0.2-1.4,1c0.3,2.9,1.1,7.1,2.8,10c0.1,0.2,0.1,0.2,0,0.2c-1-0.3-1.9,0.6-1.4,1.5
					c1.5,2.7,3.9,6.2,7.2,8.5c7,5.1,15.2,8.7,16.7,8.3c1.4-0.4,7.4-8.6,10.2-16.8c1.4-4.1,0.8-8.7,0-11.7c-0.3-1-1.7-1.1-2.1-0.1
					C52,113.9,51.8,114.2,51.8,113.8z"/>
				<path class="st20" d="M41,130.4c-0.9-2.8-2-6-3-9.2c4-3.9,6.5-11.3,6.4-11.3c-0.1,0-2,3.7-3,5.5c-1.1,1.8-2.4,3.3-3.7,4.9
					c-1.3-3.9-2.6-7.8-3.8-11.4c0,0,0,0,0-0.1c1.3-3,1.7-10.3,1.7-10.1c-0.3,1.8-1.1,6.4-2.2,8.8C31,100,29.1,94.3,29,94.4
					c-0.1,0,1.3,4.8,3.2,11.2l-2-0.6c-1.2-0.4-2.2-0.7-3.2-1.5c-0.9-0.8-2.7-2.6-2.7-2.6s1.8,3.1,3.3,4c0.9,0.5,1.9,0.7,2.8,1.1
					c0.9,0.4,1.2,0.3,2,0.8c0.9,2.9,2.1,6.9,3.1,10.2c-0.7-0.4-1.6-0.5-2.4-0.6c-1.3-0.1-2.5-0.1-3.8-0.6c-1.1-0.5-3.2-2.2-3.2-2.1
					c-0.1,0.1,2.3,2.7,4,3.2c2,0.6,4.1,0.2,5.9,1.4l0,0c1.4,4.5,2.8,8.9,3.9,12.8c-4.1-2.6-11.7-4.1-11.7-4.1s8.3,2.7,12.1,5.5l0,0
					c1.7,5.7,4.4,13.8,4.4,13.8c0.1,0.4,0.5,0.6,0.9,0.4c0.4-0.1,0.6-0.5,0.4-0.9c0,0-2.7-8.3-4.6-14v0c1.5-4.5,6.1-11,6.1-11
					C45.2,124.1,42.4,126.6,41,130.4z"/>
			</g>
			<g>
				<path class="st19" d="M72.8,130.3c2.1-2.1,3.7-5.4,4.6-7.7c0.3-0.6-0.3-1.2-1-1.2c-0.1,0-0.1-0.1,0-0.2
					c2.2-4.9,3.3-9.5,3.9-12.3c0.1-0.7-0.5-1.4-1.2-1.2c-0.1,0-0.2,0-0.1-0.2c1.5-8.2,1.9-15.1,1.9-15.1s-0.1,0-0.2,0.1
					c0-0.1,0-0.2,0-0.2s-6.2,3.2-13,8c-0.1,0.1-0.2,0.1-0.2,0c0-0.7-1-1-1.5-0.6c-2.3,1.7-6.1,4.6-9.6,8.6c-0.1,0.1-0.2,0.1-0.2,0.1
					c-0.3-0.6-1-0.9-1.5-0.4c-1.7,1.8-4.1,4.7-5.1,7.4c-0.1,0.2-0.1,0.2-0.1,0.1c-0.3-0.8-1.4-0.9-1.8-0.1c-1,2.5-2,6.1-1.7,9.5
					c0.5,7.5,2.6,15.1,3.8,15.8c1.1,0.7,9.9,0.2,17-2.5c3.6-1.4,6.3-4.3,7.9-6.5c0.5-0.7-0.2-1.8-1.1-1.4
					C72.8,130.5,72.5,130.6,72.8,130.3z"/>
				<path class="st20" d="M55.7,132.3c1.4-2.2,2.9-4.6,4.5-7.1c4.8,0.5,11.2-2,11.1-2c0,0-3.6,0.7-5.4,1c-1.8,0.3-3.5,0.2-5.3,0.2
					c1.9-3,3.8-6,5.5-8.8c0,0,0,0,0.1,0c2.7-0.8,7.9-4.6,7.7-4.5c-1.4,0.8-4.9,2.8-7.1,3.5c3.6-5.8,6.4-10.3,6.3-10.3
					c-0.1-0.1-2.5,3.5-5.7,8.4l-0.7-1.7c-0.4-1-0.8-1.8-0.8-2.9c0-1,0.3-3.3,0.3-3.3s-1.1,2.9-0.8,4.4c0.1,0.9,0.6,1.6,0.8,2.5
					c0.2,0.8,0.5,1,0.6,1.8c-1.5,2.2-3.5,5.3-5.1,7.8c-0.2-0.7-0.5-1.3-1-2c-0.7-0.9-1.4-1.7-1.7-2.9c-0.3-1-0.3-3.3-0.4-3.3
					c-0.1,0-0.5,3,0.1,4.4c0.7,1.7,2.2,2.8,2.3,4.7l0,0c-2.2,3.4-4.5,6.8-6.4,9.8c-0.5-4.2-3.8-10.1-3.8-10.1s2.8,7.1,3.1,11.2l0,0
					c-2.8,4.3-6.8,10.7-6.8,10.7c-0.2,0.3-0.1,0.6,0.2,0.8c0.3,0.2,0.6,0.1,0.8-0.2c0,0,4-6.4,6.8-10.9h0c3.8-1.4,10.8-2,10.8-2
					C62.2,131.6,59,131.1,55.7,132.3z"/>
			</g>
		</g>
		<path class="st12" d="M139,403.1H25.5c-4.3,0-7.8-3.5-7.8-7.8V119.6c0-2.1,1.7-3.7,3.7-3.7H143c2.1,0,3.7,1.7,3.7,3.7v275.8
			C146.7,399.6,143.2,403.1,139,403.1z"/>
		<linearGradient id="SVGID_5_" gradientUnits="userSpaceOnUse" x1="82.2214" y1="140.1833" x2="82.2214" y2="378.7422">
			<stop  offset="0" style="stop-color:#E3788D"/>
			<stop  offset="1" style="stop-color:#E34765"/>
		</linearGradient>
		<path class="st31" d="M129.3,378.7H35.1c-3.6,0-6.4-2.9-6.4-6.4v-229c0-1.7,1.4-3.1,3.1-3.1h101c1.7,0,3.1,1.4,3.1,3.1v229
			C135.8,375.9,132.9,378.7,129.3,378.7z"/>
		<linearGradient id="SVGID_6_" gradientUnits="userSpaceOnUse" x1="82.2214" y1="264.6522" x2="82.2214" y2="378.7422">
			<stop  offset="0" style="stop-color:#E34765;stop-opacity:0"/>
			<stop  offset="1" style="stop-color:#C94242"/>
		</linearGradient>
		<path class="st32" d="M28.7,264.7v101.4c0,7,5.7,12.7,12.7,12.7h81.8c7,0,12.7-5.7,12.7-12.7V264.7H28.7z"/>
		<g class="st33">
			<g>
				<circle class="st34" cx="111.8" cy="166.2" r="12.6"/>
				<circle class="st34" cx="62.4" cy="218.2" r="12.6"/>
				<circle class="st34" cx="62.4" cy="294.6" r="16.3"/>
				<circle class="st34" cx="108.1" cy="246.8" r="8.9"/>
				<circle class="st34" cx="104.3" cy="349.2" r="8.9"/>
			</g>
			<g>
				<circle class="st35" cx="67" cy="169.9" r="5.4"/>
				<circle class="st35" cx="117" cy="208.3" r="5.4"/>
				<circle class="st35" cx="57" cy="342.4" r="5.4"/>
				<circle class="st35" cx="109.7" cy="281.9" r="9"/>
			</g>
		</g>
		<path class="st17" d="M49.5,278.3H35.6c-0.6,0-1.2-0.5-1.2-1.2V115.8h16.3v161.3C50.7,277.8,50.1,278.3,49.5,278.3z"/>
	</g>
	<text transform="matrix(1 -3.020000e-03 3.020000e-03 1 31.9038 444.9138)"><tspan x="0" y="0" class="st18 st65" style="font-size:23.6434px;">S</tspan><tspan x="12.4" y="0" class="st18 st65" style="font-size:23.6434px;">t</tspan><tspan x="21" y="0" class="st18 st65" style="font-size:23.6434px;">r</tspan><tspan x="29.6" y="0" class="st18 st65" style="font-size:23.6434px;">a</tspan><tspan x="41.4" y="0" class="st18 st65" style="font-size:23.6434px;">wberr</tspan><tspan x="103.5" y="0" class="st18 st65" style="font-size:23.6434px;">y</tspan></text>
</g>
<g class="st0">
	<g class="st1">
		<path class="st2" d="M125.4,408.9H43.6c-9.5,0-17.3-7.5-17.8-17l-12.1-264c-0.2-3.4,2.6-6.2,6-6.2h129.7c3.4,0,6.1,2.8,6,6.2
			l-12.1,264C142.8,401.4,134.9,408.9,125.4,408.9z"/>
		<path class="st30" d="M90.8,292.8l-9-2.2c-0.4-0.1-0.7-0.5-0.6-0.9L144.5,32c0.1-0.4,0.5-0.7,0.9-0.6l9,2.2
			c0.4,0.1,0.7,0.5,0.6,0.9L91.8,292.3C91.7,292.7,91.2,293,90.8,292.8z"/>
		<g>
			<g>
				<path class="st4" d="M79.7,238.9L12.4,25.4l0,0c2.6,1.9,4.4,4.5,5.4,7.6l64.6,205.1L79.7,238.9z"/>
			</g>
			<g>
				<path class="st36" d="M29.3,113.4c16.8,3.9,33.7-6.6,37.6-23.4l-61-14.1C1.9,92.7,12.4,109.5,29.3,113.4z"/>
				<path class="st37" d="M29.6,111.9c16,3.7,32-6.3,35.7-22.3l-58-13.4C3.6,92.2,13.6,108.2,29.6,111.9z"/>
				<path class="st36" d="M31.4,107.8c6,1.2,12,0.2,17.1-2.6l-12-19.3L31.4,107.8z"/>
				<path class="st36" d="M38.3,84.5L50.4,104c4.9-3.3,8.6-8.2,10.3-14.2L38.3,84.5z"/>
				<path class="st36" d="M29.1,107.2l5.1-21.8L15.3,97.1C18.5,101.9,23.3,105.5,29.1,107.2z"/>
				<path class="st36" d="M33.1,83.3l-21.8-5c-1.1,6,0,11.9,2.8,16.9L33.1,83.3z"/>
			</g>
			<g>
				<g>
					<path class="st8" d="M42,131.9c-0.1,0.5-0.6,0.8-1.2,0.7c-0.4-0.1-9.2-1.7-16.3-6.1c-0.5-0.3-0.6-0.9-0.3-1.4
						c0.3-0.5,0.9-0.6,1.4-0.3c6.7,4.2,15.5,5.8,15.6,5.8C41.8,130.7,42.1,131.2,42,131.9C42,131.8,42,131.9,42,131.9z"/>
				</g>
				<g>
					
						<ellipse transform="matrix(0.2638 -0.9646 0.9646 0.2638 -93.614 143.6686)" class="st9" cx="47.3" cy="133.2" rx="15.8" ry="15.8"/>
					
						<ellipse transform="matrix(0.2638 -0.9646 0.9646 0.2638 -82.7455 139.2641)" class="st10" cx="49.9" cy="123.8" rx="4.6" ry="8.2"/>
					<path class="st11" d="M44.8,142.4c-7.4-2-12.1-8.9-11.6-16.3c-0.5,0.9-0.8,1.9-1.1,2.9c-2.3,8.4,2.7,17.1,11.1,19.4
						c8.4,2.3,17.1-2.7,19.4-11.1c0.3-1,0.5-2.1,0.5-3.1C59.7,140.8,52.2,144.4,44.8,142.4z"/>
				</g>
			</g>
			<g>
				<g>
					<path class="st8" d="M22.4,61.9c-0.2,0.5-0.8,0.7-1.3,0.5c-0.4-0.1-8.8-3.1-15.1-8.6c-0.4-0.4-0.5-1-0.1-1.4
						c0.4-0.4,1-0.5,1.4-0.1c6,5.2,14.4,8.1,14.4,8.2C22.3,60.7,22.6,61.2,22.4,61.9C22.4,61.8,22.4,61.8,22.4,61.9z"/>
				</g>
				<g>
					
						<ellipse transform="matrix(0.4133 -0.9106 0.9106 0.4133 -42.1482 62.495)" class="st9" cx="27.4" cy="64" rx="15.8" ry="15.8"/>
					
						<ellipse transform="matrix(0.4133 -0.9106 0.9106 0.4133 -31.7913 60.9689)" class="st10" cx="31.4" cy="55.2" rx="4.6" ry="8.2"/>
					<path class="st11" d="M23.5,72.6c-7-3.2-10.5-10.7-8.8-17.9c-0.6,0.8-1.1,1.7-1.6,2.7c-3.6,7.9-0.1,17.3,7.8,20.9
						c7.9,3.6,17.3,0.1,20.9-7.8c0.4-1,0.8-2,1-3C38.5,73.5,30.4,75.8,23.5,72.6z"/>
				</g>
			</g>
		</g>
		<path class="st12" d="M125.4,408.9H43.6c-9.5,0-17.3-7.5-17.8-17l-12.1-264c-0.2-3.4,2.6-6.2,6-6.2h129.7c3.4,0,6.1,2.8,6,6.2
			l-12.1,264C142.8,401.4,134.9,408.9,125.4,408.9z"/>
		<linearGradient id="SVGID_7_" gradientUnits="userSpaceOnUse" x1="84.5384" y1="385.3116" x2="84.5384" y2="145.2329">
			<stop  offset="0" style="stop-color:#FFB433"/>
			<stop  offset="0.7231" style="stop-color:#FFCD33"/>
		</linearGradient>
		<path class="st38" d="M118.7,385.3H50.4c-8,0-14.5-6.3-14.9-14.2L25.4,150.5c-0.1-2.8,2.1-5.2,5-5.2h108.4c2.8,0,5.1,2.4,5,5.2
			l-10.1,220.7C133.2,379.1,126.7,385.3,118.7,385.3z"/>
		<linearGradient id="SVGID_8_" gradientUnits="userSpaceOnUse" x1="84.5382" y1="248.7842" x2="84.5382" y2="385.3116">
			<stop  offset="0" style="stop-color:#FFB433;stop-opacity:0"/>
			<stop  offset="0.8051" style="stop-color:#FFB433"/>
			<stop  offset="1" style="stop-color:#FF9B33"/>
		</linearGradient>
		<path class="st39" d="M29.9,248.8l5.6,122.3c0.4,7.9,6.9,14.2,14.9,14.2h68.4c8,0,14.5-6.3,14.9-14.2l5.6-122.3H29.9z"/>
		<path class="st17" d="M52.5,281.1L52.5,281.1c-3.9,0-7.1-3.1-7.4-7l-8.3-152.7h14.8l8.2,151.9C60.1,277.6,56.7,281.1,52.5,281.1z"
			/>
		<g class="st27">
			<path class="st28" d="M122.9,170.1l-15.4-11.3c-1.5-1.1-3.6-0.8-4.7,0.7l-11.3,15.4c-0.5,0.7-0.8,1.6-0.6,2.5l1,6.1
				c0.1,0.9,0.6,1.7,1.3,2.2l15.3,11.3c1.5,1.1,3.6,0.8,4.7-0.7l11.3-15.3c0.5-0.7,0.8-1.6,0.6-2.5l-0.9-6.1
				C124.1,171.4,123.6,170.6,122.9,170.1z"/>
			<path class="st29" d="M125,178.3l-0.9-6.1c-0.1-0.5-0.2-0.9-0.5-1.3c-0.1,0.5-0.3,0.9-0.6,1.3l-11.3,15.3
				c-1.1,1.5-3.2,1.8-4.7,0.7L91.7,177c-0.4-0.3-0.7-0.6-0.9-1.1c-0.1,0.4-0.1,0.9-0.1,1.4l1,6.1c0.1,0.9,0.6,1.7,1.3,2.2l15.3,11.3
				c1.5,1.1,3.6,0.8,4.7-0.7l11.3-15.3C124.9,180.1,125.1,179.2,125,178.3z"/>
		</g>
		<g class="st27">
			<path class="st28" d="M82.5,209.2l-17,8.7c-1.7,0.8-2.3,2.9-1.5,4.5l8.7,17c0.4,0.8,1.1,1.4,2,1.7l5.9,1.9
				c0.8,0.3,1.8,0.2,2.6-0.2l17-8.6c1.7-0.8,2.3-2.9,1.5-4.5l-8.6-17c-0.4-0.8-1.1-1.4-1.9-1.7l-5.8-1.9
				C84.2,208.7,83.3,208.7,82.5,209.2z"/>
			<path class="st29" d="M90.8,211L85,209c-0.4-0.1-0.9-0.2-1.4-0.2c0.4,0.3,0.7,0.7,0.9,1.1l8.6,17c0.8,1.7,0.2,3.7-1.5,4.5
				l-17,8.6c-0.4,0.2-0.9,0.3-1.4,0.4c0.3,0.3,0.7,0.5,1.2,0.7l5.9,1.9c0.8,0.3,1.8,0.2,2.6-0.2l17-8.6c1.7-0.8,2.3-2.9,1.5-4.5
				l-8.6-17C92.4,211.8,91.7,211.2,90.8,211z"/>
		</g>
		<g class="st27">
			<path class="st28" d="M62.6,297.3l-17,8.7c-1.7,0.8-2.3,2.9-1.5,4.5l8.7,17c0.4,0.8,1.1,1.4,2,1.7l5.9,1.9
				c0.8,0.3,1.8,0.2,2.6-0.2l17-8.6c1.7-0.8,2.3-2.9,1.5-4.5l-8.6-17c-0.4-0.8-1.1-1.4-1.9-1.7l-5.8-1.9
				C64.3,296.8,63.4,296.9,62.6,297.3z"/>
			<path class="st29" d="M70.9,299.1l-5.8-1.9c-0.4-0.1-0.9-0.2-1.4-0.2c0.4,0.3,0.7,0.7,0.9,1.1l8.6,17c0.8,1.7,0.2,3.7-1.5,4.5
				l-17,8.6c-0.4,0.2-0.9,0.3-1.4,0.4c0.3,0.3,0.7,0.5,1.2,0.7l5.9,1.9c0.8,0.3,1.8,0.2,2.6-0.2l17-8.6c1.7-0.8,2.3-2.9,1.5-4.5
				l-8.6-17C72.5,300,71.8,299.4,70.9,299.1z"/>
		</g>
		<g class="st27">
			<path class="st28" d="M118.2,262.9L100,257c-1.8-0.6-3.7,0.4-4.3,2.2l-5.9,18.2c-0.3,0.9-0.2,1.8,0.2,2.6l2.8,5.5
				c0.4,0.8,1.1,1.4,2,1.7L113,293c1.8,0.6,3.7-0.4,4.3-2.2l5.9-18.1c0.3-0.8,0.2-1.8-0.2-2.6l-2.8-5.5
				C119.7,263.8,119,263.2,118.2,262.9z"/>
			<path class="st29" d="M122.8,270.1l-2.8-5.5c-0.2-0.4-0.5-0.8-0.9-1.1c0,0.5,0,0.9-0.1,1.4l-5.9,18.1c-0.6,1.8-2.5,2.7-4.3,2.2
				l-18.1-5.9c-0.5-0.1-0.9-0.4-1.2-0.7c0,0.5,0.2,0.9,0.4,1.3l2.8,5.5c0.4,0.8,1.1,1.4,2,1.7l18.1,5.9c1.8,0.6,3.7-0.4,4.3-2.2
				l5.9-18.1C123.3,271.8,123.2,270.9,122.8,270.1z"/>
		</g>
		<g class="st27">
			<path class="st28" d="M113.6,329.3l-18.2-5.9c-1.8-0.6-3.7,0.4-4.3,2.2l-5.9,18.2c-0.3,0.9-0.2,1.8,0.2,2.6l2.8,5.5
				c0.4,0.8,1.1,1.4,2,1.7l18.1,5.9c1.8,0.6,3.7-0.4,4.3-2.2l5.9-18.1c0.3-0.8,0.2-1.8-0.2-2.6l-2.8-5.5
				C115.1,330.2,114.4,329.6,113.6,329.3z"/>
			<path class="st29" d="M118.2,336.5l-2.8-5.5c-0.2-0.4-0.5-0.8-0.9-1.1c0,0.5,0,0.9-0.1,1.4l-5.9,18.1c-0.6,1.8-2.5,2.7-4.3,2.2
				l-18.1-5.9c-0.5-0.1-0.9-0.4-1.2-0.7c0,0.5,0.2,0.9,0.4,1.3l2.8,5.5c0.4,0.8,1.1,1.4,2,1.7l18.1,5.9c1.8,0.6,3.7-0.4,4.3-2.2
				l5.9-18.1C118.7,338.2,118.6,337.3,118.2,336.5z"/>
		</g>
		<g class="st40">
			<circle class="st15" cx="69.6" cy="166.2" r="6.9"/>
			<circle class="st15" cx="118.1" cy="226" r="8.6"/>
			<circle class="st15" cx="74.7" cy="270.1" r="7.8"/>
			<circle class="st15" cx="59" cy="355" r="10.6"/>
			<circle class="st15" cx="118.1" cy="314.2" r="7.5"/>
			<circle class="st16" cx="92.6" cy="371.5" r="7.5"/>
		</g>
	</g>
	<text transform="matrix(1 0 0 1 10.9519 444.9157)"><tspan x="0" y="0" class="st18 st65 st66">O</tspan><tspan x="18.8" y="0" class="st18 st65 st66">r</tspan><tspan x="27.3" y="0" class="st18 st65 st66">an</tspan><tspan x="52.5" y="0" class="st18 st65 st66">g</tspan><tspan x="64.7" y="0" class="st18 st65 st66">e </tspan><tspan x="83.1" y="0" class="st18 st65 st66">S</tspan><tspan x="95.8" y="0" class="st18 st65 st66">plash</tspan></text>
</g>
<g class="st0">
	<g class="st1">
		<path class="st2" d="M156.7,405.5H43.2c-4.3,0-7.8-3.5-7.8-7.8V122c0-2.1,1.7-3.7,3.7-3.7h121.6c2.1,0,3.7,1.7,3.7,3.7v275.8
			C164.4,402.1,161,405.5,156.7,405.5z"/>
		<path class="st41" d="M102,270l-9-2.2c-0.4-0.1-0.7-0.5-0.6-0.9L155.7,9.1c0.1-0.4,0.5-0.7,0.9-0.6l9,2.2c0.4,0.1,0.7,0.5,0.6,0.9
			l-63.3,257.7C102.8,269.8,102.4,270.1,102,270z"/>
		<g>
			<circle class="st5" cx="35.9" cy="118.6" r="35.9"/>
			<circle class="st6" cx="35.9" cy="118.6" r="34.1"/>
			<g>
				<path class="st7" d="M35,89.5c-7.1,0.2-13.5,2.9-18.4,7.3L35,115.3V89.5z"/>
				<path class="st7" d="M33.2,117.3L14.7,98.7c-4.6,4.9-7.5,11.4-7.8,18.6H33.2z"/>
				<path class="st7" d="M33,119.9H6.8c0.3,7.1,3.2,13.5,7.7,18.4L33,119.9z"/>
				<path class="st7" d="M37.6,89.6v25.7l18-18C50.8,92.8,44.6,90,37.6,89.6z"/>
				<path class="st7" d="M39.3,117.3h25.6c-0.3-7-3.1-13.3-7.4-18.1L39.3,117.3z"/>
				<path class="st7" d="M39.6,119.9l18,18c4.3-4.8,7-11.1,7.3-18H39.6z"/>
				<path class="st7" d="M35,121.7l-18.6,18.6c4.9,4.5,11.4,7.2,18.6,7.5V121.7z"/>
				<path class="st7" d="M37.6,121.7v26c7-0.4,13.4-3.3,18.2-7.8L37.6,121.7z"/>
			</g>
		</g>
		<path class="st12" d="M156.7,405.5H43.2c-4.3,0-7.8-3.5-7.8-7.8V122c0-2.1,1.7-3.7,3.7-3.7h121.6c2.1,0,3.7,1.7,3.7,3.7v275.8
			C164.4,402.1,161,405.5,156.7,405.5z"/>
		<linearGradient id="SVGID_9_" gradientUnits="userSpaceOnUse" x1="99.9523" y1="142.6289" x2="99.9523" y2="381.1877">
			<stop  offset="0" style="stop-color:#FFD65C"/>
			<stop  offset="0.6359" style="stop-color:#FFCC33"/>
		</linearGradient>
		<path class="st42" d="M147.1,381.2H52.8c-3.6,0-6.4-2.9-6.4-6.4v-229c0-1.7,1.4-3.1,3.1-3.1h101c1.7,0,3.1,1.4,3.1,3.1v229
			C153.5,378.3,150.6,381.2,147.1,381.2z"/>
		<linearGradient id="SVGID_10_" gradientUnits="userSpaceOnUse" x1="99.9523" y1="267.0977" x2="99.9523" y2="381.1877">
			<stop  offset="0" style="stop-color:#FFCC33;stop-opacity:0"/>
			<stop  offset="1" style="stop-color:#C29C27"/>
		</linearGradient>
		<path class="st43" d="M46.4,267.1v101.4c0,7,5.7,12.7,12.7,12.7h81.8c7,0,12.7-5.7,12.7-12.7V267.1H46.4z"/>
		<circle class="st15" cx="129.5" cy="168.6" r="12.6"/>
		<circle class="st15" cx="80.2" cy="220.7" r="12.6"/>
		<circle class="st15" cx="80.2" cy="297" r="16.3"/>
		<circle class="st15" cx="125.8" cy="249.2" r="8.9"/>
		<circle class="st15" cx="122" cy="351.6" r="8.9"/>
		<circle class="st16" cx="74.8" cy="172.3" r="5.4"/>
		<circle class="st16" cx="134.7" cy="210.8" r="5.4"/>
		<circle class="st16" cx="74.8" cy="344.8" r="5.4"/>
		<circle class="st16" cx="127.4" cy="284.3" r="9"/>
		<path class="st17" d="M79,280.8H65.1c-0.6,0-1.2-0.5-1.2-1.2V118.3h16.3v161.3C80.2,280.3,79.7,280.8,79,280.8z"/>
	</g>
	<text transform="matrix(1 0 0 1 48.221 444.9157)"><tspan x="0" y="0" class="st18 st65 st66">P</tspan><tspan x="14.4" y="0" class="st18 st65 st66">ineapple</tspan></text>
</g>
<g class="st0">
	<g class="st1">
		<path class="st2" d="M145.4,230.3c0-34.1-7.8-86.6-10.6-104.4c-0.6-3.6-3.4-6.2-6.7-6.2h-45h-45c-3.3,0-6.1,2.6-6.7,6.2
			c-2.8,17.8-10.6,70.3-10.6,104.4c0,68.9,27.3,89.7,56.9,92.8v59.7l-29.7,17.6c-2.4,1.4-1.4,5.1,1.4,5.1h67.5
			c2.8,0,3.8-3.7,1.4-5.1l-29.7-17.6v-59.7C118.1,320,145.4,299.2,145.4,230.3z"/>
		<path class="st44" d="M79,262.1L79,262.1c-2.2-0.6-3.6-3-3.1-5.5l46.9-206.5c0.5-2.4,2.8-3.9,5-3.3l0,0c2.2,0.6,3.6,3,3.1,5.5
			L84,258.8C83.5,261.3,81.2,262.7,79,262.1z"/>
		<path class="st44" d="M56,32L56,32c-2.2,0.6-3.6,3-3.1,5.5L99.8,244c0.5,2.4,2.8,3.9,5,3.3l0,0c2.2-0.6,3.6-3,3.1-5.5L61,35.3
			C60.4,32.9,58.2,31.4,56,32z"/>
		<g>
			<g>
				<path class="st19" d="M71.5,115.5c-0.3-3.3-2.1-7.2-3.5-9.7c-0.4-0.7-1.2-0.6-1.7,0c0,0.1-0.1,0-0.2-0.1
					c-2.7-5.5-6-9.9-8.1-12.4c-0.5-0.6-1.6-0.6-1.9,0.2c0,0.1-0.1,0.1-0.2,0c-6.1-7.3-12-12.7-12-12.7s0,0.1,0,0.2
					c-0.1-0.1-0.2-0.2-0.2-0.2S42,88.5,41.3,98c0,0.2-0.1,0.2-0.2,0.2c-0.6-0.5-1.6,0.1-1.6,0.9c-0.2,3.3-0.4,8.7,0.6,14.8
					c0,0.2,0,0.2-0.1,0.2c-0.8-0.2-1.5,0.2-1.4,1c0.3,2.9,1.1,7.1,2.8,10c0.1,0.2,0.1,0.2,0,0.2c-1-0.3-1.9,0.6-1.4,1.5
					c1.5,2.7,3.9,6.2,7.2,8.5c7,5.1,15.2,8.7,16.7,8.3c1.4-0.4,7.4-8.6,10.2-16.8c1.4-4.1,0.8-8.7,0-11.7c-0.3-1-1.7-1.1-2.1-0.1
					C71.8,115.6,71.6,115.9,71.5,115.5z"/>
				<path class="st20" d="M60.8,132.1c-0.9-2.8-2-6-3-9.2c4-3.9,6.5-11.3,6.4-11.3c-0.1,0-2,3.7-3,5.5c-1.1,1.8-2.4,3.3-3.7,4.9
					c-1.3-3.9-2.6-7.8-3.8-11.4c0,0,0,0,0-0.1c1.3-3,1.7-10.3,1.7-10.1c-0.3,1.8-1.1,6.4-2.2,8.8c-2.5-7.5-4.4-13.1-4.5-13.1
					c-0.1,0,1.3,4.8,3.2,11.2l-2-0.6c-1.2-0.4-2.2-0.7-3.2-1.5c-0.9-0.8-2.7-2.6-2.7-2.6s1.8,3.1,3.3,4c0.9,0.5,1.9,0.7,2.8,1.1
					c0.9,0.4,1.2,0.3,2,0.8c0.9,2.9,2.1,6.9,3.1,10.2c-0.7-0.4-1.6-0.5-2.4-0.6c-1.3-0.1-2.5-0.1-3.8-0.6c-1.1-0.5-3.2-2.2-3.2-2.1
					c-0.1,0.1,2.3,2.7,4,3.2c2,0.6,4.1,0.2,5.9,1.4l0,0c1.4,4.5,2.8,8.9,3.9,12.8c-4.1-2.6-11.7-4.1-11.7-4.1s8.3,2.7,12.1,5.5l0,0
					c1.7,5.7,4.4,13.8,4.4,13.8c0.1,0.4,0.5,0.6,0.9,0.4c0.4-0.1,0.6-0.5,0.4-0.9c0,0-2.7-8.3-4.6-14v0c1.5-4.5,6.1-11,6.1-11
					C65,125.8,62.2,128.3,60.8,132.1z"/>
			</g>
			<g>
				<path class="st19" d="M92.5,132c2.1-2.1,3.7-5.4,4.6-7.7c0.3-0.6-0.3-1.2-1-1.2c-0.1,0-0.1-0.1,0-0.2c2.2-4.9,3.3-9.5,3.9-12.3
					c0.1-0.7-0.5-1.4-1.2-1.2c-0.1,0-0.2,0-0.1-0.2c1.5-8.2,1.9-15.1,1.9-15.1s-0.1,0-0.2,0.1c0-0.1,0-0.2,0-0.2s-6.2,3.2-13,8
					c-0.1,0.1-0.2,0.1-0.2,0c0-0.7-1-1-1.5-0.6c-2.3,1.7-6.1,4.6-9.6,8.6c-0.1,0.1-0.2,0.1-0.2,0.1c-0.3-0.6-1-0.9-1.5-0.4
					c-1.7,1.8-4.1,4.7-5.1,7.4c-0.1,0.2-0.1,0.2-0.1,0.1c-0.3-0.8-1.4-0.9-1.8-0.1c-1,2.5-2,6.1-1.7,9.5c0.5,7.5,2.6,15.1,3.8,15.8
					c1.1,0.7,9.9,0.2,17-2.5c3.6-1.4,6.3-4.3,7.9-6.5c0.5-0.7-0.2-1.8-1.1-1.4C92.6,132.2,92.3,132.3,92.5,132z"/>
				<path class="st20" d="M75.4,134.1c1.4-2.2,2.9-4.6,4.5-7.1c4.8,0.5,11.2-2,11.1-2c0,0-3.6,0.7-5.4,1c-1.8,0.3-3.5,0.2-5.3,0.2
					c1.9-3,3.8-6,5.5-8.8c0,0,0,0,0.1,0c2.7-0.8,7.9-4.6,7.7-4.5c-1.4,0.8-4.9,2.8-7.1,3.5c3.6-5.8,6.4-10.3,6.3-10.3
					c-0.1-0.1-2.5,3.5-5.7,8.4l-0.7-1.7c-0.4-1-0.8-1.8-0.8-2.9c0-1,0.3-3.3,0.3-3.3s-1.1,2.9-0.8,4.4c0.1,0.9,0.6,1.6,0.8,2.5
					c0.2,0.8,0.5,1,0.6,1.8c-1.5,2.2-3.5,5.3-5.1,7.8c-0.2-0.7-0.5-1.3-1-2c-0.7-0.9-1.4-1.7-1.7-2.9c-0.3-1-0.3-3.3-0.4-3.3
					c-0.1,0-0.5,3,0.1,4.4c0.7,1.7,2.2,2.8,2.3,4.7v0c-2.2,3.4-4.5,6.8-6.4,9.8c-0.5-4.2-3.8-10.1-3.8-10.1s2.8,7.1,3.1,11.2l0,0
					c-2.8,4.3-6.8,10.7-6.8,10.7c-0.2,0.3-0.1,0.6,0.2,0.8c0.3,0.2,0.6,0.1,0.8-0.2c0,0,4-6.4,6.8-10.9l0,0c3.8-1.4,10.8-2,10.8-2
					C82,133.3,78.8,132.9,75.4,134.1z"/>
			</g>
		</g>
		<path class="st12" d="M145.4,230.3c0-34.1-7.8-86.6-10.6-104.4c-0.6-3.6-3.4-6.2-6.7-6.2h-45h-45c-3.3,0-6.1,2.6-6.7,6.2
			c-2.8,17.8-10.6,70.3-10.6,104.4c0,68.9,27.3,89.7,56.9,92.8V376c0,4.2-2.2,8-5.8,10.1l-24,14.2c-2.4,1.4-1.4,5.1,1.4,5.1h67.5
			c2.8,0,3.8-3.7,1.4-5.1l-24-14.2c-3.6-2.1-5.8-6-5.8-10.1v-52.9C118.1,320,145.4,299.2,145.4,230.3z"/>
		<linearGradient id="SVGID_11_" gradientUnits="userSpaceOnUse" x1="83.1011" y1="135.5453" x2="83.1011" y2="307.2527">
			<stop  offset="0" style="stop-color:#41B4D7"/>
			<stop  offset="0.4238" style="stop-color:#34CECF"/>
			<stop  offset="0.7949" style="stop-color:#34A8CF"/>
		</linearGradient>
		<path class="st45" d="M78.5,307.3h9.2c25-2.6,48.1-20.2,48.1-78.3c0-28.8-6.6-73.1-8.9-88.2c-0.5-3-2.9-5.2-5.7-5.2h-38h-38
			c-2.8,0-5.2,2.2-5.7,5.2c-2.4,15.1-8.9,59.4-8.9,88.2C30.5,287.1,53.5,304.6,78.5,307.3z"/>
		<path class="st17" d="M43.2,264.7c3.8-43.4,12.5-124.3,16.5-145H46.2C42.4,139.6,32.3,221.4,43.2,264.7z"/>
		<linearGradient id="SVGID_12_" gradientUnits="userSpaceOnUse" x1="83.1011" y1="228.6204" x2="83.1011" y2="307.2527">
			<stop  offset="0" style="stop-color:#34A8CF;stop-opacity:0"/>
			<stop  offset="1" style="stop-color:#004355"/>
		</linearGradient>
		<path class="st46" d="M30.5,228.6c0,0.1,0,0.2,0,0.3c0,58.2,23,75.7,48.1,78.3h9.2c25-2.6,48.1-20.2,48.1-78.3c0-0.1,0-0.2,0-0.3
			H30.5z"/>
		<g class="st47">
			<circle class="st28" cx="68.7" cy="164" r="7.7"/>
			<circle class="st28" cx="100.4" cy="180.1" r="8.5"/>
			<circle class="st28" cx="69.9" cy="218.8" r="11.4"/>
			<circle class="st28" cx="111.2" cy="247.8" r="8.1"/>
			<circle class="st48" cx="83.4" cy="252.5" r="4.8"/>
			<circle class="st48" cx="111.2" cy="209.9" r="4.8"/>
			<circle class="st48" cx="106.4" cy="153.2" r="4.8"/>
			<circle class="st28" cx="67.3" cy="277.3" r="11.4"/>
		</g>
	</g>
	<text transform="matrix(1 0 0 1 8.3445 444.9158)"><tspan x="0" y="0" class="st18 st65 st66">B</tspan><tspan x="15.2" y="0" class="st18 st65 st66">lue </tspan><tspan x="52.6" y="0" class="st18 st65 st66">H</tspan><tspan x="70.4" y="0" class="st18 st65 st66">a</tspan><tspan x="82.2" y="0" class="st18 st65 st66">w</tspan><tspan x="100.9" y="0" class="st18 st65 st66">aiian</tspan></text>
</g>
<g>
	<g>
		<path class="st2" d="M142.5,274.2c0-28-12.8-52.9-18.5-67c-8.4-20.9,1.3-63.5,5.7-80.4c0.9-3.6-1.8-7.1-5.5-7.1H36.6
			c-3.7,0-6.4,3.5-5.5,7.1c4.4,16.9,14.1,59.5,5.7,80.4c-5.7,14.2-18.5,39.1-18.5,67c0,28.7,21.8,52.5,50.6,57.7v13.5
			c-5.7,3.8-9.5,10.2-9.5,17.5c0,6.7,3.1,12.6,7.9,16.4l-29.3,16.6c-4.6,2.6-2.8,9.6,2.5,9.6h79.6c5.3,0,7.2-7,2.5-9.6l-29.3-16.6
			c4.8-3.8,7.9-9.8,7.9-16.4c0-7.3-3.8-13.8-9.5-17.5v-13.5C120.7,326.8,142.5,302.9,142.5,274.2z"/>
		<g>
			<g>
				<path class="st8" d="M129.2,104.6c-0.7-0.3-1-1.1-0.8-1.8c0.1-0.2,1.4-4.3,3.8-7.9c2.5-3.8,5.8-5.5,5.9-5.5
					c0.7-0.4,1.6-0.1,2,0.7c0.4,0.7,0.1,1.6-0.7,2c0,0-2.7,1.4-4.8,4.5c-2.2,3.3-3.4,7.1-3.4,7.2c-0.3,0.8-1.1,1.2-1.9,1
					C129.3,104.6,129.2,104.6,129.2,104.6z"/>
			</g>
			
				<linearGradient id="SVGID_13_" gradientUnits="userSpaceOnUse" x1="176.1658" y1="105.0168" x2="176.1658" y2="150.8732" gradientTransform="matrix(0.9016 0.4325 -0.4325 0.9016 17.3175 -71.5807)">
				<stop  offset="0" style="stop-color:#C96F6F"/>
				<stop  offset="1" style="stop-color:#C94242"/>
			</linearGradient>
			<path class="st49" d="M141,125.3c-4.4,9.2-23.7,18.3-30.1,15.3c-6.9-3.3-11.3-23.9-6.9-33c4.4-9.2,16.5-13.2,26.7-8.3
				C140.9,104.2,145.4,116.2,141,125.3z"/>
			<g>
				<path class="st50" d="M130.8,99.6c0,0,4.3,0.1,8.1,8.5c3,6.7-0.1,14.9-0.1,14.9s-8.4-9-9.7-14.2
					C128,104.3,130.8,99.6,130.8,99.6z"/>
				<path class="st51" d="M130.8,99.6c0,0,3.5,0.1,6.5,6.9c2.4,5.4,0.6,12.3,0.6,12.3s-7.5-7.6-8.5-11.8
					C128.6,103.4,130.8,99.6,130.8,99.6z"/>
			</g>
			<g>
				<path class="st50" d="M130.9,99.4c0,0,4-1.7,10.9,4.4c5.5,4.9,6.1,13.6,6.1,13.6s-11.4-4.7-14.8-8.9
					C130.3,104.8,130.9,99.4,130.9,99.4z"/>
				<path class="st51" d="M130.9,99.3c0,0,3.2-1.4,8.8,3.5c4.4,3.9,5.7,10.9,5.7,10.9s-9.9-3.8-12.6-7.2
					C130.4,103.7,130.9,99.3,130.9,99.3z"/>
			</g>
			<g>
				<path class="st50" d="M131,101.2c0,0-1.3-4.1-10.4-5.4c-7.3-1-14.3,4.2-14.3,4.2s11,5.6,16.4,5.4
					C127.3,105.3,131,101.2,131,101.2z"/>
				<path class="st51" d="M131,101.2c0,0-1.1-3.3-8.4-4.3c-5.8-0.8-12,2.9-12,2.9s9.4,5,13.7,4.9C128,104.5,131,101.2,131,101.2z"/>
			</g>
			<g>
				<path class="st50" d="M131.8,100c0,0-3.2,2.9-11.7-0.7c-6.8-2.8-10.2-10.9-10.2-10.9s12.3,0.8,16.8,3.7
					C130.6,94.6,131.8,100,131.8,100z"/>
				<path class="st51" d="M131.8,100c0,0-2.6,2.3-9.4-0.5c-5.4-2.3-8.9-8.5-8.9-8.5s10.6,0.4,14.3,2.7
					C130.9,95.7,131.8,100,131.8,100z"/>
			</g>
			<g class="st52">
				
					<ellipse transform="matrix(0.1426 -0.9898 0.9898 0.1426 -18.3808 202.5225)" class="st53" cx="107.7" cy="111.9" rx="3.5" ry="1.6"/>
				
					<ellipse transform="matrix(0.2094 -0.9778 0.9778 0.2094 -32.2115 206.683)" class="st53" cx="111.7" cy="123.3" rx="3.5" ry="1.6"/>
				
					<ellipse transform="matrix(0.4325 -0.9016 0.9016 0.4325 -56.2792 178.6455)" class="st53" cx="113.8" cy="134" rx="3.5" ry="1.6"/>
				
					<ellipse transform="matrix(0.7295 -0.684 0.684 0.7295 -55.7824 120.8786)" class="st53" cx="124.9" cy="131" rx="3.5" ry="1.6"/>
				
					<ellipse transform="matrix(0.4324 -0.9017 0.9017 0.4324 -42.1698 176.9617)" class="st53" cx="119.5" cy="122" rx="3.5" ry="1.6"/>
				
					<ellipse transform="matrix(0.4325 -0.9016 0.9016 0.4325 -30.0425 175.6304)" class="st53" cx="124.5" cy="111.7" rx="3.5" ry="1.6"/>
				
					<ellipse transform="matrix(0.7296 -0.6839 0.6839 0.7296 -50.185 126.514)" class="st53" cx="134.9" cy="126.7" rx="3.5" ry="1.6"/>
				<g>
					
						<ellipse transform="matrix(0.1425 -0.9898 0.9898 0.1425 -10.2894 209.9796)" class="st53" cx="116" cy="110.9" rx="3.5" ry="1.6"/>
					
						<ellipse transform="matrix(0.7295 -0.6839 0.6839 0.7295 -46.0805 120.7918)" class="st53" cx="129.7" cy="118.7" rx="3.5" ry="1.6"/>
				</g>
			</g>
		</g>
		<path class="st44" d="M58.8,261.5L58.8,261.5c-2.2-0.6-3.6-3-3.1-5.5l46.9-206.5c0.5-2.4,2.8-3.9,5-3.3l0,0c2.2,0.6,3.6,3,3.1,5.5
			L63.9,258.2C63.3,260.6,61.1,262.1,58.8,261.5z"/>
		<path class="st44" d="M35.2,32L35.2,32c-2.2,0.6-3.6,3-3.1,5.5L79,244c0.5,2.4,2.8,3.9,5,3.3l0,0c2.2-0.6,3.6-3,3.1-5.5L40.2,35.3
			C39.7,32.9,37.4,31.4,35.2,32z"/>
		<path class="st12" d="M142.5,274.2c0-28-12.8-52.9-18.5-67c-8.4-20.9,1.3-63.5,5.7-80.4c0.9-3.6-1.8-7.1-5.5-7.1H36.6
			c-3.7,0-6.4,3.5-5.5,7.1c4.4,16.9,14.1,59.5,5.7,80.4c-5.7,14.2-18.5,39.1-18.5,67c0,28.7,21.8,52.5,50.6,57.7v13.5
			c-5.7,3.8-9.5,10.2-9.5,17.5c0,6.7,3.1,12.6,7.9,16.4l-29.3,16.6c-4.6,2.6-2.8,9.6,2.5,9.6h79.6c5.3,0,7.2-7,2.5-9.6l-29.3-16.6
			c4.8-3.8,7.9-9.8,7.9-16.4c0-7.3-3.8-13.8-9.5-17.5v-13.5C120.7,326.8,142.5,302.9,142.5,274.2z"/>
		<path class="st54" d="M40.1,180.9c0.8-19.9-4.6-44.9-8.1-58.8c-0.9,1.3-1.3,3-0.9,4.7C34.1,138.1,39.4,160.8,40.1,180.9z"/>
		<path class="st54" d="M120.7,180.9c0.7-20.1,6-42.8,9-54.1c0.5-1.7,0-3.4-0.9-4.7C125.3,136,120,161,120.7,180.9z"/>
		<linearGradient id="SVGID_14_" gradientUnits="userSpaceOnUse" x1="80.4292" y1="135.4077" x2="80.4292" y2="320.0417">
			<stop  offset="0" style="stop-color:#ED5368"/>
			<stop  offset="0.3043" style="stop-color:#ED4259"/>
			<stop  offset="0.6953" style="stop-color:#ED324B"/>
			<stop  offset="1" style="stop-color:#ED2C46"/>
		</linearGradient>
		<path class="st55" d="M68.1,319.9c-22.8-5.3-39-24.6-39-46.8c0-22.1,8.7-42.5,15-57.4c1.2-2.8,2.3-5.3,3.2-7.6
			c7.9-19.8,3.5-43.6-1.8-66.3c-0.7-3.2,1.7-6.3,5-6.3h59.9c3.3,0,5.7,3.1,5,6.3c-5.2,22.8-9.7,46.6-1.8,66.3c0.9,2.3,2,4.8,3.2,7.6
			c6.3,14.9,15,35.3,15,57.4c0,22.3-16.2,41.6-39,46.8C91.7,320.1,69.2,320.1,68.1,319.9z"/>
		<linearGradient id="SVGID_15_" gradientUnits="userSpaceOnUse" x1="80.4292" y1="228.6204" x2="80.4292" y2="320.0417">
			<stop  offset="0" style="stop-color:#ED2C46;stop-opacity:0"/>
			<stop  offset="0.1022" style="stop-color:#DC2941;stop-opacity:0.1022"/>
			<stop  offset="0.3728" style="stop-color:#B52135;stop-opacity:0.3728"/>
			<stop  offset="0.6217" style="stop-color:#991C2D;stop-opacity:0.6217"/>
			<stop  offset="0.8388" style="stop-color:#881828;stop-opacity:0.8388"/>
			<stop  offset="1" style="stop-color:#821726"/>
		</linearGradient>
		<path class="st56" d="M38.8,228.6c-5,12.9-9.7,28.2-9.7,44.4c0,22.3,16.2,41.6,39,46.8c1.1,0.3,23.6,0.3,24.7,0
			c22.8-5.3,39-24.6,39-46.8c0-16.2-4.7-31.5-9.7-44.4H38.8z"/>
		<path class="st17" d="M38.6,247.5c-5.7,28,2.4,43.2,2.4,43.2s-2.9-21.7,7.7-47.9c8.1-20,13.9-26.7,18.3-45.9
			c9.1-39.3-6.3-77.4-6.3-77.4l-18.2,0c0,0,16,49,12.1,76.5C52.5,211.1,44,221.2,38.6,247.5z"/>
		<g class="st27">
			<path class="st28" d="M69.6,265.3l-14.1,7.2c-1.4,0.7-1.9,2.4-1.2,3.8l7.2,14.1c0.3,0.7,0.9,1.2,1.6,1.4l4.9,1.5
				c0.7,0.2,1.5,0.2,2.1-0.2l14.1-7.2c1.4-0.7,1.9-2.4,1.2-3.8l-7.2-14.1c-0.3-0.7-0.9-1.2-1.6-1.4l-4.8-1.6
				C71.1,264.9,70.3,264.9,69.6,265.3z"/>
			<path class="st29" d="M76.5,266.8l-4.8-1.6c-0.4-0.1-0.7-0.2-1.1-0.1c0.3,0.2,0.6,0.5,0.7,0.9l7.2,14.1c0.7,1.4,0.2,3.1-1.2,3.8
				l-14.1,7.2c-0.4,0.2-0.7,0.3-1.1,0.3c0.3,0.2,0.6,0.4,1,0.6l4.9,1.5c0.7,0.2,1.5,0.2,2.1-0.2l14.1-7.2c1.4-0.7,1.9-2.4,1.2-3.8
				l-7.2-14.1C77.8,267.5,77.2,267,76.5,266.8z"/>
		</g>
		<g class="st27">
			<path class="st28" d="M73.7,225.7l-10,5.1c-1,0.5-1.4,1.7-0.9,2.7l5.1,10c0.2,0.5,0.7,0.8,1.2,1l3.5,1.1c0.5,0.2,1,0.1,1.5-0.1
				l10-5.1c1-0.5,1.4-1.7,0.9-2.7l-5.1-10c-0.2-0.5-0.6-0.8-1.1-1l-3.4-1.1C74.7,225.4,74.2,225.4,73.7,225.7z"/>
			<path class="st29" d="M78.6,226.7l-3.4-1.1c-0.3-0.1-0.5-0.1-0.8-0.1c0.2,0.2,0.4,0.4,0.5,0.6l5.1,10c0.5,1,0.1,2.2-0.9,2.7
				l-10,5.1c-0.3,0.1-0.5,0.2-0.8,0.2c0.2,0.2,0.4,0.3,0.7,0.4l3.5,1.1c0.5,0.2,1,0.1,1.5-0.1l10-5.1c1-0.5,1.4-1.7,0.9-2.7l-5.1-10
				C79.5,227.3,79.1,226.9,78.6,226.7z"/>
		</g>
		<g class="st27">
			<path class="st28" d="M113.4,256.9l-13.6-6.8c-1.3-0.7-2.9-0.1-3.6,1.2L89.5,265c-0.3,0.6-0.4,1.4-0.1,2.1l1.6,4.6
				c0.2,0.7,0.7,1.2,1.3,1.5l13.6,6.7c1.3,0.7,2.9,0.1,3.6-1.2l6.7-13.6c0.3-0.6,0.4-1.4,0.1-2l-1.5-4.7
				C114.6,257.8,114.1,257.2,113.4,256.9z"/>
			<path class="st29" d="M116.2,263.1l-1.5-4.7c-0.1-0.4-0.3-0.7-0.5-0.9c0,0.4-0.1,0.7-0.3,1.1l-6.7,13.6c-0.7,1.3-2.3,1.9-3.6,1.2
				L90,266.6c-0.3-0.2-0.6-0.4-0.9-0.7c0,0.4,0,0.7,0.1,1.1l1.6,4.6c0.2,0.7,0.7,1.2,1.3,1.5l13.6,6.7c1.3,0.7,2.9,0.1,3.6-1.2
				l6.7-13.6C116.4,264.5,116.5,263.7,116.2,263.1z"/>
		</g>
		<g class="st27">
			<path class="st28" d="M99.3,200.9l-10.8-5.4c-1.1-0.5-2.3-0.1-2.9,1l-5.4,10.8c-0.3,0.5-0.3,1.1-0.1,1.6l1.3,3.7
				c0.2,0.5,0.6,1,1.1,1.2l10.8,5.3c1.1,0.5,2.3,0.1,2.9-1l5.3-10.8c0.2-0.5,0.3-1.1,0.1-1.6l-1.2-3.7
				C100.2,201.6,99.8,201.2,99.3,200.9z"/>
			<path class="st29" d="M101.6,205.8l-1.2-3.7c-0.1-0.3-0.2-0.5-0.4-0.7c0,0.3-0.1,0.6-0.2,0.9L94.3,213c-0.5,1.1-1.8,1.5-2.9,1
				l-10.8-5.3c-0.3-0.1-0.5-0.3-0.7-0.6c0,0.3,0,0.6,0.1,0.9l1.3,3.7c0.2,0.5,0.6,1,1.1,1.2l10.8,5.3c1.1,0.5,2.3,0.1,2.9-1
				l5.3-10.8C101.7,206.9,101.7,206.3,101.6,205.8z"/>
		</g>
		<g class="st47">
			<circle class="st57" cx="96.5" cy="148.5" r="7.7"/>
			<circle class="st57" cx="82.1" cy="173.3" r="6.8"/>
			<circle class="st57" cx="102.8" cy="232.8" r="5.1"/>
			<circle class="st57" cx="56.2" cy="255.8" r="8.1"/>
			<circle class="st57" cx="96.5" cy="300.1" r="6.7"/>
			<g>
				<circle class="st58" cx="79.4" cy="148.2" r="3.1"/>
				<circle class="st58" cx="82.5" cy="257.3" r="3.1"/>
				<circle class="st58" cx="71.4" cy="211.6" r="3.1"/>
			</g>
		</g>
	</g>
	<text transform="matrix(1 0 0 1 40.929 444.9158)" class="st0"><tspan x="0" y="0" class="st18 st65 st66">D</tspan><tspan x="17.7" y="0" class="st18 st65 st66">aiquiri</tspan></text>
</g>
<g class="st0">
	<g class="st1">
		<path class="st2" d="M127.2,377.5H45.4c-9.5,0-17.3-7.5-17.8-17l-12.1-264c-0.2-3.4,2.6-6.2,6-6.2h129.7c3.4,0,6.1,2.8,6,6.2
			l-12.1,264C144.6,370,136.7,377.5,127.2,377.5z"/>
		<path class="st41" d="M92.6,261.5l-9-2.2c-0.4-0.1-0.7-0.5-0.6-0.9L146.3,0.6c0.1-0.4,0.5-0.7,0.9-0.6l9,2.2
			c0.4,0.1,0.7,0.5,0.6,0.9L93.5,260.9C93.4,261.3,93,261.6,92.6,261.5z"/>
		<g>
			<g>
				<path class="st8" d="M40.8,69.8c-0.9,0.4-1.9,0.1-2.4-0.8c-0.1-0.2-2.9-5-4.4-10.3c-1.5-5.6-0.4-10.1-0.4-10.3
					c0.3-1,1.3-1.6,2.3-1.4c1,0.3,1.6,1.3,1.4,2.3c0,0-0.9,3.7,0.3,8.4c1.3,4.8,4,9.3,4,9.3c0.5,0.9,0.2,2.1-0.7,2.6
					C41,69.7,40.9,69.8,40.8,69.8z"/>
			</g>
			
				<linearGradient id="SVGID_16_" gradientUnits="userSpaceOnUse" x1="-53.7456" y1="62.6953" x2="-53.7456" y2="121.1332" gradientTransform="matrix(0.9193 -0.3936 0.3936 0.9193 61.7744 -14.9081)">
				<stop  offset="0" style="stop-color:#C96F6F"/>
				<stop  offset="1" style="stop-color:#C94242"/>
			</linearGradient>
			<path class="st59" d="M70.6,75.9c5.1,11.9-2.3,38.2-10.6,41.7c-9,3.9-32.4-9.2-37.5-21.1C17.5,84.5,23.8,69.6,37,63.9
				C50.3,58.2,65.5,64,70.6,75.9z"/>
			<g>
				<path class="st50" d="M37.4,64.1c0,0,3.7-4.1,14.9-0.6c8.9,2.8,14.2,12.6,14.2,12.6s-15.7,0.5-21.8-2.6
					C39.6,70.7,37.4,64.1,37.4,64.1z"/>
				<path class="st51" d="M37.4,64c0,0,3-3.3,12-0.5c7.2,2.2,12.3,9.8,12.3,9.8s-13.5,0.8-18.4-1.7C39.1,69.4,37.4,64,37.4,64z"/>
			</g>
			<g>
				<path class="st50" d="M37.3,63.8c0,0,1.7-5.3,13.4-6.7c9.3-1.2,18.1,5.5,18.1,5.5s-14.1,7-20.9,6.7C42,69,37.3,63.8,37.3,63.8z"
					/>
				<path class="st51" d="M37.2,63.7c0,0,1.4-4.2,10.8-5.4c7.5-0.9,15.3,3.8,15.3,3.8s-12,6.3-17.5,6.1C41,67.9,37.2,63.7,37.2,63.7
					z"/>
			</g>
			<g>
				<path class="st50" d="M39.1,65.3c0,0-5.1-2.2-13.9,5.5c-7,6.1-7.9,17.2-7.9,17.2s14.6-5.9,18.9-11.2
					C39.9,72.2,39.1,65.3,39.1,65.3z"/>
				<path class="st51" d="M39.1,65.2c0,0-4.1-1.8-11.2,4.4c-5.7,4.9-7.3,13.9-7.3,13.9s12.7-4.7,16.2-9.1
					C39.7,70.8,39.1,65.2,39.1,65.2z"/>
			</g>
			<g>
				<path class="st50" d="M38.6,63.4c0,0,0.1,5.5-10.5,10.7c-8.4,4.1-19,0.6-19,0.6s11.1-11.2,17.7-13.1
					C32.5,60,38.6,63.4,38.6,63.4z"/>
				<path class="st51" d="M38.6,63.5c0,0,0.1,4.5-8.4,8.6c-6.8,3.3-15.7,1.4-15.7,1.4s9.3-9.9,14.6-11.4
					C33.7,60.7,38.6,63.5,38.6,63.5z"/>
			</g>
			<g class="st52">
				
					<ellipse transform="matrix(0.7592 -0.6509 0.6509 0.7592 -55.6497 42.6247)" class="st53" cx="29.8" cy="96.5" rx="2" ry="4.5"/>
				
					<ellipse transform="matrix(0.8016 -0.5978 0.5978 0.8016 -52.3786 46.6227)" class="st53" cx="44.1" cy="102.2" rx="2" ry="4.5"/>
				
					<ellipse transform="matrix(0.9193 -0.3936 0.3936 0.9193 -38.4864 30.9136)" class="st53" cx="56.1" cy="109.3" rx="2" ry="4.5"/>
				
					<ellipse transform="matrix(0.9994 -3.420296e-02 3.420296e-02 0.9994 -3.2477 2.1956)" class="st53" cx="62.5" cy="96" rx="2" ry="4.5"/>
				
					<ellipse transform="matrix(0.9193 -0.3935 0.3935 0.9193 -32.8935 26.9798)" class="st53" cx="49.4" cy="93.7" rx="2" ry="4.5"/>
				
					<ellipse transform="matrix(0.9193 -0.3935 0.3935 0.9193 -28.0551 23.6709)" class="st53" cx="43.7" cy="80.3" rx="2" ry="4.5"/>
				
					<ellipse transform="matrix(0.9994 -3.420381e-02 3.420381e-02 0.9994 -2.7971 2.334)" class="st53" cx="66.8" cy="82.9" rx="2" ry="4.5"/>
				<g>
					
						<ellipse transform="matrix(0.7592 -0.6509 0.6509 0.7592 -48.4663 44.4765)" class="st53" cx="35.9" cy="87.7" rx="2" ry="4.5"/>
					
						<ellipse transform="matrix(0.9994 -3.410063e-02 3.410063e-02 0.9994 -2.7349 1.9139)" class="st53" cx="54.7" cy="81.1" rx="2" ry="4.5"/>
				</g>
			</g>
		</g>
		<g>
			<g>
				<path class="st8" d="M104.4,87.2c-0.7-0.6-1-1.6-0.5-2.5c0.1-0.2,2.9-5,6.8-8.9c4.2-4.1,8.6-5.3,8.8-5.4c1-0.3,2.1,0.3,2.3,1.4
					c0.3,1-0.3,2.1-1.4,2.3c0,0-3.7,1-7.1,4.4c-3.5,3.5-6.1,8-6.2,8c-0.5,0.9-1.7,1.2-2.6,0.7C104.6,87.3,104.5,87.2,104.4,87.2z"/>
			</g>
			
				<linearGradient id="SVGID_17_" gradientUnits="userSpaceOnUse" x1="222.5958" y1="-66.4721" x2="222.5958" y2="-8.0362" gradientTransform="matrix(0.7933 0.6089 -0.6089 0.7933 -109.3224 -1.8063)">
				<stop  offset="0" style="stop-color:#C96F6F"/>
				<stop  offset="1" style="stop-color:#C94242"/>
			</linearGradient>
			<path class="st60" d="M113.7,116.2c-7.9,10.3-34.4,16.7-41.5,11.2c-7.8-6-7.8-32.7,0.1-43c7.9-10.3,24.1-12.1,35.5-3.3
				C119.2,89.8,121.6,105.9,113.7,116.2z"/>
			<g>
				<path class="st50" d="M107.8,81.4c0,0,5.4,1.3,7.8,12.7c1.9,9.1-4,18.5-4,18.5s-8.1-13.5-8.4-20.3
					C103,86.5,107.8,81.4,107.8,81.4z"/>
				<path class="st51" d="M107.8,81.4c0,0,4.3,1,6.3,10.3c1.6,7.4-2.5,15.5-2.5,15.5s-7.3-11.4-7.5-16.9
					C104,85.5,107.8,81.4,107.8,81.4z"/>
			</g>
			<g>
				<path class="st50" d="M108,81.2c0,0,5.4-1.1,12.4,8.3c5.6,7.5,4.1,18.5,4.1,18.5s-13-8.9-16.1-15C105.7,87.8,108,81.2,108,81.2z
					"/>
				<path class="st51" d="M108,81.1c0,0,4.4-0.9,10,6.7c4.5,6,4.2,15.1,4.2,15.1s-11.4-7.3-13.9-12.3C106.2,86.4,108,81.1,108,81.1z
					"/>
			</g>
			<g>
				<path class="st50" d="M107.5,83.5c0,0-0.6-5.5-11.6-9.4C87.1,70.9,77,75.6,77,75.6s12.3,9.8,19,11
					C101.8,87.5,107.5,83.5,107.5,83.5z"/>
				<path class="st51" d="M107.6,83.4c0,0-0.5-4.4-9.4-7.6c-7.1-2.5-15.7,0.4-15.7,0.4s10.4,8.7,15.8,9.7
					C103,86.7,107.6,83.4,107.6,83.4z"/>
			</g>
			<g>
				<path class="st50" d="M108.9,82.1c0,0-4.8,2.8-14.4-3.9C86.8,72.9,84.6,62,84.6,62s15.2,4.2,20,9
					C108.9,75.1,108.9,82.1,108.9,82.1z"/>
				<path class="st51" d="M108.9,82.2c0,0-3.9,2.2-11.6-3.1c-6.2-4.3-8.8-13-8.8-13s13.2,3.3,17.1,7.2
					C108.9,76.6,108.9,82.2,108.9,82.2z"/>
			</g>
			<g class="st52">
				
					<ellipse transform="matrix(0.3433 -0.9392 0.9392 0.3433 -35.4051 130.6518)" class="st53" cx="75.7" cy="90.6" rx="4.5" ry="2"/>
				
					<ellipse transform="matrix(0.4062 -0.9138 0.9138 0.4062 -50.8404 131.3804)" class="st53" cx="75.7" cy="104.8" rx="4.5" ry="2"/>
				
					<ellipse transform="matrix(0.6089 -0.7933 0.7933 0.6089 -64.7863 108.3529)" class="st53" cx="77.5" cy="119.9" rx="4.5" ry="2"/>
				<ellipse transform="matrix(0.8547 -0.5191 0.5191 0.8547 -48.3655 65.1496)" class="st53" cx="92.2" cy="119" rx="4.5" ry="2"/>
				
					<ellipse transform="matrix(0.6089 -0.7933 0.7933 0.6089 -50.0295 111.2027)" class="st53" cx="87.8" cy="106.3" rx="4.5" ry="2"/>
				
					<ellipse transform="matrix(0.6088 -0.7933 0.7933 0.6088 -37.3813 113.8202)" class="st53" cx="96.7" cy="94.8" rx="4.5" ry="2"/>
				
					<ellipse transform="matrix(0.8547 -0.5191 0.5191 0.8547 -45.0056 71.7806)" class="st53" cx="105.7" cy="116.3" rx="4.5" ry="2"/>
				<g>
					
						<ellipse transform="matrix(0.3433 -0.9392 0.9392 0.3433 -29.3689 141.304)" class="st53" cx="86.4" cy="91.7" rx="4.5" ry="2"/>
					
						<ellipse transform="matrix(0.8547 -0.5191 0.5191 0.8547 -39.7163 67.8529)" class="st53" cx="101.4" cy="104.9" rx="4.5" ry="2"/>
				</g>
			</g>
		</g>
		<path class="st12" d="M127.2,377.5H45.4c-9.5,0-17.3-7.5-17.8-17l-12.1-264c-0.2-3.4,2.6-6.2,6-6.2h129.7c3.4,0,6.1,2.8,6,6.2
			l-12.1,264C144.6,370,136.7,377.5,127.2,377.5z"/>
		<linearGradient id="SVGID_18_" gradientUnits="userSpaceOnUse" x1="86.3101" y1="353.9306" x2="86.3101" y2="113.852">
			<stop  offset="0" style="stop-color:#FC7B95"/>
			<stop  offset="0.7231" style="stop-color:#E34765"/>
		</linearGradient>
		<path class="st61" d="M120.5,353.9H52.1c-8,0-14.5-6.3-14.9-14.2L27.1,119.1c-0.1-2.8,2.1-5.2,5-5.2h108.4c2.8,0,5.1,2.4,5,5.2
			l-10.1,220.7C135,347.7,128.4,353.9,120.5,353.9z"/>
		<linearGradient id="SVGID_19_" gradientUnits="userSpaceOnUse" x1="86.3102" y1="217.4032" x2="86.3102" y2="353.9306">
			<stop  offset="0" style="stop-color:#FFFFFF;stop-opacity:0"/>
			<stop  offset="0.8051" style="stop-color:#FFCC33"/>
			<stop  offset="1" style="stop-color:#C29B27"/>
		</linearGradient>
		<path class="st62" d="M31.6,217.4l5.6,122.3c0.4,7.9,6.9,14.2,14.9,14.2h68.4c8,0,14.5-6.3,14.9-14.2l5.6-122.3H31.6z"/>
		<path class="st17" d="M54.3,249.7L54.3,249.7c-3.9,0-7.1-3.1-7.4-7L38.6,90h14.8L61.6,242C61.8,246.2,58.5,249.7,54.3,249.7z"/>
		<g class="st27">
			<path class="st28" d="M124.7,138.7l-15.4-11.3c-1.5-1.1-3.6-0.8-4.7,0.7l-11.3,15.4c-0.5,0.7-0.8,1.6-0.6,2.5l1,6.1
				c0.1,0.9,0.6,1.7,1.3,2.2l15.3,11.3c1.5,1.1,3.6,0.8,4.7-0.7l11.3-15.3c0.5-0.7,0.8-1.6,0.6-2.5l-0.9-6.1
				C125.9,140,125.4,139.2,124.7,138.7z"/>
			<path class="st29" d="M126.8,147l-0.9-6.1c-0.1-0.5-0.2-0.9-0.5-1.3c-0.1,0.5-0.3,0.9-0.6,1.3l-11.3,15.3
				c-1.1,1.5-3.2,1.8-4.7,0.7l-15.3-11.3c-0.4-0.3-0.7-0.6-0.9-1.1c-0.1,0.4-0.1,0.9-0.1,1.4l1,6.1c0.1,0.9,0.6,1.7,1.3,2.2
				l15.3,11.3c1.5,1.1,3.6,0.8,4.7-0.7l11.3-15.3C126.7,148.7,126.9,147.8,126.8,147z"/>
		</g>
		<g class="st27">
			<path class="st28" d="M84.3,177.8l-17,8.7c-1.7,0.8-2.3,2.9-1.5,4.5l8.7,17c0.4,0.8,1.1,1.4,2,1.7l5.9,1.9
				c0.8,0.3,1.8,0.2,2.6-0.2l17-8.6c1.7-0.8,2.3-2.9,1.5-4.5l-8.6-17c-0.4-0.8-1.1-1.4-1.9-1.7l-5.8-1.9
				C86,177.3,85.1,177.4,84.3,177.8z"/>
			<path class="st29" d="M92.6,179.6l-5.8-1.9c-0.4-0.1-0.9-0.2-1.4-0.2c0.4,0.3,0.7,0.7,0.9,1.1l8.6,17c0.8,1.7,0.2,3.7-1.5,4.5
				l-17,8.6c-0.4,0.2-0.9,0.3-1.4,0.4c0.3,0.3,0.7,0.5,1.2,0.7l5.9,1.9c0.8,0.3,1.8,0.2,2.6-0.2l17-8.6c1.7-0.8,2.3-2.9,1.5-4.5
				l-8.6-17C94.2,180.5,93.5,179.9,92.6,179.6z"/>
		</g>
		<g class="st27">
			<path class="st28" d="M64.4,265.9l-17,8.7c-1.7,0.8-2.3,2.9-1.5,4.5l8.7,17c0.4,0.8,1.1,1.4,2,1.7l5.9,1.9
				c0.8,0.3,1.8,0.2,2.6-0.2l17-8.6c1.7-0.8,2.3-2.9,1.5-4.5l-8.6-17c-0.4-0.8-1.1-1.4-1.9-1.7l-5.8-1.9
				C66.1,265.4,65.2,265.5,64.4,265.9z"/>
			<path class="st29" d="M72.7,267.7l-5.8-1.9c-0.4-0.1-0.9-0.2-1.4-0.2c0.4,0.3,0.7,0.7,0.9,1.1l8.6,17c0.8,1.7,0.2,3.7-1.5,4.5
				l-17,8.6c-0.4,0.2-0.9,0.3-1.4,0.4c0.3,0.3,0.7,0.5,1.2,0.7l5.9,1.9c0.8,0.3,1.8,0.2,2.6-0.2l17-8.6c1.7-0.8,2.3-2.9,1.5-4.5
				l-8.6-17C74.2,268.6,73.5,268,72.7,267.7z"/>
		</g>
		<g class="st27">
			<path class="st28" d="M119.9,231.5l-18.2-5.9c-1.8-0.6-3.7,0.4-4.3,2.2L91.6,246c-0.3,0.9-0.2,1.8,0.2,2.6l2.8,5.5
				c0.4,0.8,1.1,1.4,2,1.7l18.1,5.9c1.8,0.6,3.7-0.4,4.3-2.2l5.9-18.1c0.3-0.8,0.2-1.8-0.2-2.6l-2.8-5.5
				C121.5,232.4,120.8,231.8,119.9,231.5z"/>
			<path class="st29" d="M124.6,238.7l-2.8-5.5c-0.2-0.4-0.5-0.8-0.9-1.1c0,0.5,0,0.9-0.1,1.4l-5.9,18.1c-0.6,1.8-2.5,2.7-4.3,2.2
				l-18.1-5.9c-0.5-0.1-0.9-0.4-1.2-0.7c0,0.5,0.2,0.9,0.4,1.3l2.8,5.5c0.4,0.8,1.1,1.4,2,1.7l18.1,5.9c1.8,0.6,3.7-0.4,4.3-2.2
				l5.9-18.1C125,240.4,125,239.5,124.6,238.7z"/>
		</g>
		<g class="st27">
			<path class="st28" d="M115.3,297.9L97.2,292c-1.8-0.6-3.7,0.4-4.3,2.2L87,312.3c-0.3,0.9-0.2,1.8,0.2,2.6l2.8,5.5
				c0.4,0.8,1.1,1.4,2,1.7l18.1,5.9c1.8,0.6,3.7-0.4,4.3-2.2l5.9-18.1c0.3-0.8,0.2-1.8-0.2-2.6l-2.8-5.5
				C116.9,298.8,116.2,298.2,115.3,297.9z"/>
			<path class="st29" d="M120,305.1l-2.8-5.5c-0.2-0.4-0.5-0.8-0.9-1.1c0,0.5,0,0.9-0.1,1.4l-5.9,18.1c-0.6,1.8-2.5,2.7-4.3,2.2
				l-18.1-5.9c-0.5-0.1-0.9-0.4-1.2-0.7c0,0.5,0.2,0.9,0.4,1.3l2.8,5.5c0.4,0.8,1.1,1.4,2,1.7l18.1,5.9c1.8,0.6,3.7-0.4,4.3-2.2
				l5.9-18.1C120.4,306.8,120.4,305.9,120,305.1z"/>
		</g>
		<g class="st40">
			<circle class="st63" cx="71.4" cy="134.9" r="6.9"/>
			<circle class="st63" cx="119.9" cy="194.6" r="8.6"/>
			<circle class="st64" cx="72.8" cy="167.8" r="3.7"/>
			<circle class="st64" cx="76.5" cy="238.7" r="7.8"/>
			<circle class="st15" cx="60.8" cy="323.6" r="10.6"/>
			<circle class="st15" cx="119.9" cy="282.8" r="7.5"/>
			<circle class="st16" cx="94.3" cy="340.1" r="7.5"/>
		</g>
	</g>
	<text transform="matrix(1 0 0 1 48.9097 416.5529)"><tspan x="0" y="0" class="st18 st65 st66">F</tspan><tspan x="12.4" y="0" class="st18 st65 st66">r</tspan><tspan x="20.7" y="0" class="st18 st65 st66">o</tspan><tspan x="34" y="0" class="st18 st65 st66">z</tspan><tspan x="44.5" y="0" class="st18 st65 st66">en </tspan><tspan x="-19.5" y="28.4" class="st18 st65 st66">S</tspan><tspan x="-7.1" y="28.4" class="st18 st65 st66">t</tspan><tspan x="1.5" y="28.4" class="st18 st65 st66">r</tspan><tspan x="10.1" y="28.4" class="st18 st65 st66">a</tspan><tspan x="21.9" y="28.4" class="st18 st65 st66">wberr</tspan><tspan x="84" y="28.4" class="st18 st65 st66">y</tspan></text>
</g>
</svg>
