<?xml version="1.0" encoding="utf-8"?>
<!-- Generator: Adobe Illustrator 21.1.0, SVG Export Plug-In . SVG Version: 6.00 Build 0)  -->
<svg version="1.1" id="Layer_1" xmlns="http://www.w3.org/2000/svg" xmlns:xlink="http://www.w3.org/1999/xlink" x="0px" y="0px"
	 width="137.9px" height="129.5px" viewBox="0 0 137.9 129.5" style="enable-background:new 0 0 137.9 129.5;" xml:space="preserve"
	>
<style type="text/css">
	.st0{fill:#F8AFA6;}
	.st1{fill:#FF9193;}
	.st2{fill:#E66C6E;}
	.st3{fill:#FBCBCB;}
	.st4{fill:#B81E1E;}
</style>
<g>
	<g>
		<path class="st0" d="M97.8,100.2c0.5,4,0.6,8.3-0.7,12.1c-1.4,3.8-4.6,7.2-8.6,7.8c-2.9,0.4-6-0.7-8.7,0.3c-2.5,0.9-4,3.3-5.9,5.1
			c-5.6,5.3-15.4,5.4-21.1,0.2c-7.2-6.6-6.6-18.1-4.2-27.6c2.2-8.7,5.6-17.1,9.9-24.9c4.4-8,15.3-21.3,24.5-11.8
			C92,70.8,96.3,87.7,97.8,100.2z"/>
		<path class="st1" d="M52,120.2c5.7,5.2,15.5,5.2,21.1-0.2c1.9-1.8,3.5-4.2,5.9-5.1c2.7-1,5.8,0,8.7-0.3c4-0.5,7.2-3.9,8.6-7.8
			c1.2-3.4,1.2-7,0.9-10.6c0.2,1.4,0.4,2.7,0.5,4c0.5,4,0.6,8.3-0.7,12.1s-4.6,7.2-8.6,7.8c-2.9,0.4-6-0.7-8.7,0.3
			c-2.5,0.9-4,3.3-5.9,5.1c-5.6,5.3-15.4,5.4-21.1,0.2c-4-3.7-5.6-8.9-5.8-14.5C47.7,114.6,49.3,117.8,52,120.2z"/>
		<path class="st1" d="M85.2,85.3c0.1,1.6,0.2,3.2-0.4,4.7c-0.5,1.5-1.7,2.8-3.3,3.1c-1.8,0.3-3.5-0.7-5.3-0.6
			c-4.5,0.2-6.8,6.7-11.3,6.9c-2.1,0.1-4.1-1.5-5.1-3.4c-1-1.9-1.3-4.1-1.5-6.2c-0.4-4.8-0.5-9.8,0.7-14.5c1.3-4.7,4.1-9.1,8.3-11.5
			c2-1.1,4.5-1.8,6.7-1.2c3.7,0.9,5.9,5.4,7.4,8.5C83.5,75.5,84.8,80.4,85.2,85.3z"/>
		<g>
			<g>
				<path class="st2" d="M69.2,70c0,0,0.3,4,1.1,8.9c0.8,4.8,1.8,8.8,1.8,8.8s0.1-1,0.2-2.6c0-1.6,0-3.9-0.4-6.4
					c-0.4-2.5-1.1-4.6-1.6-6.2C69.7,70.9,69.2,70,69.2,70z"/>
			</g>
			<g>
				<path class="st2" d="M67.1,71.6c0,0-0.5,3.9-0.1,8.6s1.4,8.5,1.4,8.5s0.5-3.9,0.1-8.6C68.2,75.3,67.1,71.6,67.1,71.6z"/>
			</g>
			<g>
				<path class="st2" d="M74.2,73.2c0,0,0.3,3.5,1.3,7.6c1,4.1,2.4,7.3,2.4,7.3s0.1-3.5-0.9-7.6C75.9,76.3,74.2,73.2,74.2,73.2z"/>
			</g>
		</g>
	</g>
	<g>
		<path class="st0" d="M35.9,97.4c-3.6,1.4-7.5,2.5-11.4,2.2c-3.9-0.4-7.8-2.6-9.3-6.2c-1-2.6-0.8-5.7-2.4-8c-1.4-2.1-4-3-6.1-4.3
			c-6.3-4-8.7-13.1-5.1-19.6C6.1,53.2,16.9,51,26.2,51.1c8.6,0,17.2,1.1,25.5,3.3c8.4,2.2,23.4,9.2,16.7,20
			C61.9,85.1,47.2,93.1,35.9,97.4z"/>
		<path class="st1" d="M1.6,61.5c2.3-4.4,6.5-7,11.2-8.5c-2.7,1.6-5,3.7-6.5,6.5C2.8,65.9,5.2,75,11.5,79c2.1,1.3,4.7,2.2,6.1,4.3
			c1.6,2.3,1.3,5.4,2.4,8c1.5,3.6,5.4,5.8,9.3,6.2c3.9,0.4,7.8-0.8,11.4-2.2c0.7-0.3,1.3-0.5,2-0.8c-2.3,1.1-4.6,2-6.7,2.9
			c-3.6,1.4-7.5,2.5-11.4,2.2c-3.9-0.4-7.8-2.6-9.3-6.2c-1-2.6-0.8-5.7-2.4-8c-1.4-2.1-4-3-6.1-4.3C0.5,77.1-1.9,68,1.6,61.5z"/>
		<path class="st1" d="M40,83.8c-1.9,0-4.1-0.6-5-2.4c-0.6-1.2-0.5-2.7-0.8-4c-1-4-5.7-6-7.5-9.7c-0.4-0.9-0.7-2-0.4-2.9
			c0.3-1.3,1.4-2.2,2.6-2.7c1.2-0.5,2.5-0.6,3.8-0.7c6.6-0.5,13.1-1.1,19.7-0.4c4.7,0.4,10.8,2.6,10.4,8.5
			C62.5,73.8,44.6,83.8,40,83.8z"/>
		<g>
			<g>
				<path class="st2" d="M61.3,67.5c0,0-0.9,0.6-2.4,1.5c-1.5,0.9-3.5,2.1-5.7,3.4c-2.2,1.3-4.2,2.5-5.7,3.3
					C46,76.6,45,77.2,45,77.2s1.1-0.2,2.7-0.7c1.6-0.5,3.9-1.4,6.2-2.8c2.3-1.4,4.1-2.9,5.4-4.1C60.6,68.4,61.3,67.5,61.3,67.5z"/>
			</g>
			<g>
				<path class="st2" d="M59,65.1c0,0-0.8,0.3-2,0.8c-1.2,0.5-2.9,1.3-4.8,2.1c-1.8,0.8-3.5,1.6-4.7,2.2c-1.2,0.6-2,1-2,1
					s0.8-0.1,2.2-0.3c1.3-0.3,3.2-0.8,5-1.6c1.9-0.9,3.5-1.9,4.5-2.7C58.4,65.7,59,65.1,59,65.1z"/>
			</g>
			<g>
				<path class="st2" d="M59.3,64.1c0,0-0.2-0.1-0.7-0.2c-0.4-0.1-1.1-0.2-1.8-0.2c-1.6-0.1-3.8,0.2-6,0.9c-2.2,0.7-4.2,1.5-5.6,2
					c-1.4,0.5-2.4,0.7-2.4,0.7s0.2,0,0.7,0c0.4,0,1.1,0,1.8-0.1c1.6-0.2,3.6-0.7,5.8-1.4c2.2-0.7,4.2-1.3,5.6-1.6
					c0.7-0.1,1.3-0.2,1.8-0.2C59.1,64.2,59.3,64.1,59.3,64.1z"/>
			</g>
		</g>
	</g>
	<g>
		<path class="st0" d="M103.2,44.4c-23-1.5-41.9,10.2-43.2,15.3C58.8,64.8,70.9,83,92.2,89c10.5,3,22.8,1.4,30.2-1.6
			c9.8-3.9,4.7-11.6,11.7-15.9C147.2,63.5,124.5,45.8,103.2,44.4z"/>
		<path class="st3" d="M87.2,87.3c10.5,3,22.8,1.4,30.2-1.6c9.8-3.9,4.7-11.6,11.7-15.9c10-6.1-0.5-17.6-15.4-23.6
			C131,51.4,145,64.8,134,71.6c-6.9,4.2-1.8,12-11.7,15.9c-7.4,2.9-19.6,4.6-30.2,1.6c-1.8-0.5-3.5-1.1-5.1-1.8
			C87.1,87.3,87.2,87.3,87.2,87.3z"/>
		<path class="st1" d="M83.4,50.2c-12.8-0.8-23.3,5.7-24,8.5c-0.7,2.8,6,12.9,17.8,16.3c5.9,1.7,12.6,0.8,16.8-0.9
			c5.5-2.2,2.6-6.5,6.5-8.8C107.8,60.8,95.2,50.9,83.4,50.2z"/>
		<g>
			<g>
				<path class="st4" d="M84.1,54.3c-2.4-0.7-4.6-1-7.1-1.3c-0.5-0.1-0.6-0.7-0.1-0.9c2.2-1,4.9,0.1,7.1,0.8c2.8,0.9,5.3,2,7.8,3.5
					C92.1,56.6,86.5,55,84.1,54.3z"/>
			</g>
			<g>
				<path class="st2" d="M84.7,58.5c-3.1-1-6.9-1.7-9.6-3.4c-0.4-0.2-0.1-0.8,0.3-0.7c3.4,0.2,6.7,1.8,9.9,2.8
					c3.6,1.2,7.2,2.2,10.7,3.7C96.4,61.1,88.3,59.6,84.7,58.5z"/>
			</g>
			<g>
				<path class="st2" d="M80.9,63.4c-2.2-0.2-5.1,0.1-6.9-1.2c-0.3-0.2-0.1-0.7,0.3-0.7c5.4,0,12.2,1.7,17.6,2.4
					C92.4,64,84.1,63.6,80.9,63.4z"/>
			</g>
			<g>
				<path class="st2" d="M78.3,68c-2.7-0.3-5.8-0.5-8-2c-0.7-0.4,0-1.2,0.6-1.1c6.1,1.4,12.3,2.5,18.5,3.3
					C90.5,68.5,81.9,68.4,78.3,68z"/>
			</g>
			<g>
				<path class="st2" d="M77.6,72.8c-2.1-0.3-4.3-0.9-5.3-2.7c-0.2-0.3,0.3-0.7,0.6-0.6c2.2,1,4.1,1.7,6.6,1.8c2.6,0.1,6.1,0.3,9,1
					C88.5,72.4,80.6,73.2,77.6,72.8z"/>
			</g>
		</g>
	</g>
	<g>
		<path class="st0" d="M68.5,26.1c11.4,20.1,9,42.2,5,45.6c-4,3.4-25.6,0.3-40.3-16.2C25.9,47.3,22,35.5,21.4,27.6
			c-0.8-10.6,8.4-9.3,9.2-17.4C32.1-5.3,58,7.5,68.5,26.1z"/>
		<path class="st1" d="M36.8,59.2C29.5,51,25.7,39.3,25.1,31.3c-0.8-10.6,8.4-9.3,9.2-17.4c1.1-11.6,16.1-7.2,27.9,3.6
			C50.1,4.1,31.9-2.7,30.6,10.2c-0.8,8.1-10,6.8-9.2,17.4c0.6,8,4.4,19.7,11.7,27.9c1.2,1.4,2.5,2.7,3.8,3.9
			C36.9,59.3,36.9,59.2,36.8,59.2z"/>
		<path class="st1" d="M71.9,46.4c6.3,11.2,5,23.5,2.8,25.3c-2.2,1.9-14.2,0.2-22.4-9c-4-4.6-6.2-11.1-6.5-15.5
			c-0.4-5.9,4.7-5.2,5.1-9.7C51.7,29,66.1,36.1,71.9,46.4z"/>
		<g>
			<g>
				<path class="st2" d="M67.9,47.7c1.7,1.8,2.9,3.8,4.3,5.8c0.3,0.4,0.9,0.3,0.9-0.3c-0.1-2.4-2.2-4.4-3.8-6
					c-2-2.2-4.1-3.9-6.6-5.5C62.4,41.4,66.2,45.8,67.9,47.7z"/>
			</g>
			<g>
				<path class="st2" d="M63.8,48.9c2.3,2.4,4.5,5.5,7.2,7.2c0.4,0.2,0.7-0.2,0.5-0.6c-1.7-2.9-4.6-5.3-6.8-7.7
					c-2.6-2.7-5.2-5.5-8-8C56.4,39.5,61.3,46.1,63.8,48.9z"/>
			</g>
			<g>
				<path class="st2" d="M61.1,54.5c1.1,1.9,2.1,4.6,4.1,5.7c0.4,0.2,0.6-0.2,0.5-0.6c-2.3-4.9-6.8-10.3-9.8-14.8
					C55.5,44.4,59.5,51.7,61.1,54.5z"/>
			</g>
			<g>
				<path class="st2" d="M58.1,58.8c1.5,2.3,3,5,5.2,6.4c0.7,0.4,1.1-0.5,0.7-1c-3.9-4.9-7.6-10-11-15.2
					C52.4,48,56.1,55.8,58.1,58.8z"/>
			</g>
			<g>
				<path class="st2" d="M54,61.6c1.1,1.8,2.7,3.5,4.7,3.6c0.4,0,0.6-0.6,0.3-0.8c-1.8-1.6-3.3-2.9-4.5-5.2
					c-1.2-2.3-2.9-5.4-4.8-7.7C49.7,51.5,52.4,59,54,61.6z"/>
			</g>
		</g>
	</g>
	<g>
		<g>
			<path class="st0" d="M107.4,46.8c2.9-2.6,5.8-5.5,7.2-9.2c1.5-3.6,1.3-8.2-1.2-11.1c-1.8-2.1-4.7-3.4-6.1-5.9
				c-1.2-2.2-0.8-4.9-1-7.5C104.8-5.1,79.9-2.1,71.1,8.4c-5.5,6.5-5.9,15.8-5.9,24.3c-0.1,7.8-1.5,14-3.4,21.4
				c-1.6,6.2,3.6,11.5,10,11C84.3,64.3,98.3,54.9,107.4,46.8z"/>
			<path class="st1" d="M91,48.7c1.4-1.3,2.8-2.7,3.6-4.5c0.7-1.8,0.7-4-0.6-5.5c-0.9-1.1-2.3-1.7-3-2.9c-0.6-1.1-0.4-2.4-0.5-3.7
				c-0.8-9-13.1-7.5-17.4-2.3c-2.7,3.2-2.9,7.8-2.9,12c0,3.9-0.7,6.9-1.7,10.6c-0.8,3.1,1.8,5.7,4.9,5.5
				C79.6,57.3,86.5,52.7,91,48.7z"/>
			<g>
				<path class="st2" d="M74.3,52.6c0,0,2.6-2.6,5.1-6.2c2.5-3.6,3.9-7,3.9-7s-2.6,2.5-5.1,6.2C75.7,49.2,74.3,52.6,74.3,52.6z"/>
			</g>
			<g>
				<path class="st2" d="M73.1,51c0,0,1.5-1.9,2.8-4.4c1.3-2.5,2.2-4.7,2.2-4.7s-0.5,0.4-1.2,1c-0.7,0.7-1.6,1.7-2.3,3
					c-0.7,1.3-1.1,2.6-1.3,3.5C73.1,50.4,73.1,51,73.1,51z"/>
			</g>
			<g>
				<path class="st2" d="M70.3,51c0,0,1.6-3.3,3.1-7.4c1.5-4.1,2.4-7.7,2.4-7.7s-2.2,3-3.8,7.2C70.6,47.3,70.3,51,70.3,51z"/>
			</g>
			<g>
				<path class="st2" d="M73.1,56.3c0,0,1.1-0.2,2.9-0.8c1.7-0.6,4.1-1.7,6.3-3.4c2.3-1.7,3.9-3.7,5-5.2c1.1-1.5,1.5-2.6,1.5-2.6
					s-0.8,0.8-2.1,2.1c-1.3,1.3-3.2,2.9-5.3,4.5c-2.2,1.6-4.2,3-5.8,3.9C74.1,55.7,73.1,56.3,73.1,56.3z"/>
			</g>
		</g>
		<path class="st3" d="M111.4,41.1c1.5-3.6,1.3-8.2-1.2-11.1c-1.8-2.1-4.7-3.4-6.1-5.9c-1.2-2.2-0.8-4.9-1-7.5
			c-1.4-17-23-15.6-33.1-6.9c0.3-0.5,0.7-0.9,1-1.4c8.8-10.5,33.7-13.6,35.2,4.7c0.2,2.5-0.2,5.2,1,7.5c1.3,2.5,4.2,3.7,6.1,5.9
			c2.6,3,2.7,7.5,1.2,11.1c-1.2,3-3.3,5.5-5.6,7.7C110,44,110.8,42.7,111.4,41.1z"/>
	</g>
	<g>
		<path class="st2" d="M59.1,49.4c-7.4,5.5-9.2,15.8-3.9,23c5.3,7.2,15.6,8.7,23.1,3.2c7.4-5.5,9.2-15.8,3.9-23
			C76.8,45.4,66.5,44,59.1,49.4z"/>
	</g>
</g>
</svg>
