<?xml version="1.0" encoding="utf-8"?>
<!-- Generator: Adobe Illustrator 21.1.0, SVG Export Plug-In . SVG Version: 6.00 Build 0)  -->
<svg version="1.1" id="Layer_1" xmlns="http://www.w3.org/2000/svg" xmlns:xlink="http://www.w3.org/1999/xlink" x="0px" y="0px"
	 width="150px" height="109.7px" viewBox="0 0 150 109.7" style="enable-background:new 0 0 150 109.7;" xml:space="preserve">
<style type="text/css">
	.st0{fill:#24D46E;}
	.st1{fill:#1AA153;}
	.st2{fill:#2AA159;}
	.st3{fill:#1F8C4B;}
</style>
<g>
	<g>
		<path class="st0" d="M131.6,33.4c-9.3,3.9-18.8,2.8-19,2.5c0.2,0.3,7.7-2.5,17.1-6.6c9.4-4.2,20.2-0.9,20.3-0.5
			C149.9,28.6,141,29.4,131.6,33.4z"/>
		<path class="st1" d="M113.6,36.1c2.6-0.1,6.5-0.9,8.6-1.6c0.6,0,11.7-4.3,11.8-4.2c-0.1-0.1-11.4,3.9-12,3.9
			c-2.2,0.6-6,1.4-8.6,1.6c-0.5,0.1-0.8,0.2-0.8,0.2S113,36,113.6,36.1z"/>
	</g>
	<g>
		<path class="st0" d="M122.2,51.6c-1.4-9.7-9.1-15.9-9.4-15.8c0.3-0.1,3.9,7.2,5.4,16.8c1.6,9.5,7,15.9,7.3,15.9
			C125.2,68.5,123.6,61.2,122.2,51.6z"/>
		<path class="st1" d="M113.5,36.4c1.8,1.9,3.7,5.3,4.4,7.4c0.6,0.4,3.1,11.5,2.9,11.5c0.1,0-2.6-11-3.3-11.5
			c-0.8-2-2.7-5.4-4.5-7.3c-0.3-0.5-0.4-0.7-0.4-0.7C112.7,35.8,113,36,113.5,36.4z"/>
	</g>
	<g>
		<g>
			<path class="st0" d="M122.6,29c-9.1,4.4-18.5,3.9-18.7,3.6c0.2,0.3,7.5-2.9,16.6-7.6c9.1-4.7,20-2,20.1-1.7
				C140.4,23.1,131.6,24.5,122.6,29z"/>
			<path class="st1" d="M104.8,32.7c2.6-0.2,6.4-1.2,8.5-2.1c0.6-0.1,11.4-5,11.5-4.9c-0.1-0.1-11.1,4.6-11.7,4.6
				c-2.1,0.7-5.9,1.8-8.5,2.1c-0.5,0.2-0.8,0.3-0.8,0.3C103.8,32.6,104.2,32.7,104.8,32.7z"/>
		</g>
		<g>
			<path class="st0" d="M114.1,47.7c-1.9-9.6-10-15.4-10.2-15.2c0.3-0.1,4.3,7,6.3,16.4c2.1,9.4,7.8,15.4,8.1,15.4
				C118,64.4,116.1,57.2,114.1,47.7z"/>
			<path class="st1" d="M104.7,33c1.9,1.8,4,5.1,4.8,7.1c0.6,0.4,3.7,11.3,3.6,11.3c0.1,0-3.2-10.9-3.9-11.2c-0.9-2-3-5.2-4.8-7.1
				c-0.3-0.4-0.4-0.7-0.4-0.7C103.9,32.5,104.2,32.7,104.7,33z"/>
		</g>
	</g>
	<g>
		<g>
			<path class="st0" d="M112.3,24.7c-8.8,5-18.2,5-18.4,4.8c0.2,0.3,7.3-3.4,16.1-8.6c8.8-5.3,19.8-3.3,19.9-3
				C129.7,17.7,121,19.6,112.3,24.7z"/>
			<path class="st1" d="M94.8,29.5c2.6-0.4,6.3-1.6,8.3-2.6c0.5-0.1,11.1-5.7,11.2-5.6c-0.1-0.1-10.8,5.3-11.3,5.3
				c-2.1,0.9-5.8,2.2-8.3,2.6c-0.5,0.2-0.7,0.3-0.7,0.3C93.9,29.5,94.2,29.5,94.8,29.5z"/>
		</g>
		<g>
			<path class="st0" d="M105,43.9c-2.5-9.4-10.8-14.7-11.1-14.5c0.3-0.1,4.7,6.7,7.3,16c2.6,9.2,8.7,14.9,9,14.8
				C109.9,60.3,107.6,53.2,105,43.9z"/>
			<path class="st1" d="M94.7,29.9c2,1.7,4.3,4.8,5.2,6.8c0.6,0.4,4.4,11.1,4.2,11.1c0.1,0-3.9-10.6-4.5-11c-1-1.9-3.3-5-5.3-6.7
				c-0.3-0.4-0.5-0.6-0.5-0.6C93.9,29.4,94.2,29.5,94.7,29.9z"/>
		</g>
	</g>
	<g>
		<g>
			<path class="st0" d="M101.6,21c-8.4,5.5-17.8,6.2-18,6c0.2,0.2,7.1-3.9,15.5-9.6c8.4-5.9,19.5-4.6,19.6-4.2
				C118.5,12.9,110,15.4,101.6,21z"/>
			<path class="st1" d="M84.5,27c2.6-0.5,6.2-2,8.1-3.2c0.5-0.1,10.7-6.4,10.8-6.3c-0.1-0.1-10.4,5.9-11,6c-2,1-5.6,2.5-8.1,3.1
				c-0.5,0.2-0.7,0.3-0.7,0.4C83.5,27,83.9,27,84.5,27z"/>
		</g>
		<g>
			<path class="st0" d="M95.5,40.6c-3.1-9.3-11.7-14-12-13.8c0.3-0.2,5.1,6.4,8.3,15.5c3.2,9,9.6,14.3,9.8,14.2
				C101.4,56.7,98.6,49.8,95.5,40.6z"/>
			<path class="st1" d="M84.4,27.3c2.1,1.5,4.6,4.5,5.6,6.4c0.6,0.3,5,10.8,4.9,10.8c0.1,0-4.5-10.3-5.2-10.7
				c-1.2-1.8-3.6-4.8-5.7-6.4c-0.3-0.4-0.5-0.6-0.5-0.6C83.6,26.9,83.9,27,84.4,27.3z"/>
		</g>
	</g>
	<g>
		<g>
			<path class="st0" d="M89.7,17.8c-8,6.1-17.3,7.4-17.6,7.2c0.2,0.2,6.8-4.3,14.8-10.6c8-6.4,19.1-5.9,19.2-5.6
				C105.9,8.5,97.6,11.6,89.7,17.8z"/>
			<path class="st1" d="M73,24.9c2.5-0.7,6-2.5,7.9-3.7c0.5-0.2,10.2-7.1,10.3-7c-0.1-0.1-9.9,6.6-10.5,6.8
				c-1.9,1.1-5.4,2.9-7.9,3.7c-0.5,0.3-0.7,0.4-0.7,0.4C72.1,25,72.4,25,73,24.9z"/>
		</g>
		<g>
			<path class="st0" d="M85,37.7c-3.7-9-12.6-13.1-12.9-12.9c0.3-0.2,5.6,6,9.3,14.9c3.8,8.8,10.5,13.6,10.8,13.5
				C91.9,53.4,88.7,46.7,85,37.7z"/>
			<path class="st1" d="M73,25.2c2.2,1.4,4.9,4.2,6,6c0.7,0.3,5.8,10.4,5.6,10.4c0.1,0-5.2-10-5.9-10.3c-1.3-1.7-3.9-4.6-6.1-6
				c-0.4-0.4-0.6-0.6-0.6-0.6S72.4,25,73,25.2z"/>
		</g>
	</g>
	<g>
		<g>
			<path class="st0" d="M77.9,15.4c-7.6,6.6-16.8,8.5-17,8.4c0.2,0.2,6.5-4.8,14-11.6C82.4,5.3,93.5,5,93.7,5.3
				C93.5,5.1,85.4,8.7,77.9,15.4z"/>
			<path class="st1" d="M61.8,23.6c2.5-0.9,5.9-2.9,7.6-4.2c0.5-0.2,9.7-7.8,9.8-7.7c-0.1-0.1-9.5,7.3-10,7.5
				c-1.9,1.3-5.2,3.3-7.6,4.2c-0.4,0.3-0.7,0.4-0.7,0.4S61.2,23.8,61.8,23.6z"/>
		</g>
		<g>
			<path class="st0" d="M74.6,35.7c-4.3-8.8-13.5-12.2-13.7-12c0.2-0.2,6,5.7,10.3,14.2c4.4,8.5,11.4,12.8,11.6,12.7
				C82.5,50.8,78.9,44.3,74.6,35.7z"/>
			<path class="st1" d="M61.8,24c2.3,1.2,5.2,3.9,6.4,5.6c0.7,0.2,6.4,10,6.3,10c0.1,0-5.9-9.6-6.6-9.8c-1.4-1.7-4.2-4.3-6.5-5.6
				c-0.4-0.4-0.6-0.5-0.6-0.5C60.9,23.7,61.2,23.8,61.8,24z"/>
		</g>
	</g>
	<g>
		<g>
			<path class="st0" d="M65.7,13.9c-7.1,7.1-16.2,9.7-16.4,9.5c0.3,0.2,6.2-5.2,13.2-12.5c7-7.4,18.1-8.5,18.3-8.2
				C80.5,2.4,72.7,6.6,65.7,13.9z"/>
			<path class="st1" d="M50.2,23.1c2.4-1.1,5.7-3.2,7.3-4.7c0.5-0.2,9.1-8.4,9.2-8.4c-0.1-0.1-8.9,7.9-9.5,8.1
				c-1.8,1.4-5,3.6-7.3,4.7c-0.4,0.3-0.6,0.5-0.6,0.5C49.2,23.4,49.6,23.3,50.2,23.1z"/>
		</g>
		<g>
			<path class="st0" d="M63.7,34.3c-4.9-8.4-14.3-11.3-14.5-11c0.2-0.2,6.3,5.2,11.3,13.5c5,8.2,12.2,12,12.5,11.9
				C72.7,48.8,68.6,42.6,63.7,34.3z"/>
			<path class="st1" d="M50.2,23.5c2.4,1.1,5.4,3.5,6.8,5.1c0.7,0.2,7.1,9.5,7,9.6c0.1,0-6.5-9.2-7.2-9.4c-1.5-1.6-4.5-4-6.8-5.1
				c-0.4-0.3-0.6-0.5-0.6-0.5C49.2,23.2,49.6,23.3,50.2,23.5z"/>
		</g>
	</g>
	<g>
		<g>
			<path class="st0" d="M55.4,13.2c-6.7,7.5-15.6,10.6-15.9,10.5c0.3,0.2,5.9-5.6,12.5-13.3c6.6-7.8,17.6-9.5,17.8-9.2
				C69.5,0.9,62,5.5,55.4,13.2z"/>
			<path class="st1" d="M40.4,23.3c2.3-1.2,5.5-3.6,7-5.2c0.5-0.3,8.7-8.9,8.8-8.9c-0.1,0-8.5,8.4-9,8.7c-1.7,1.5-4.8,3.9-7.1,5.1
				c-0.4,0.3-0.6,0.5-0.6,0.5C39.5,23.6,39.8,23.5,40.4,23.3z"/>
		</g>
		<g>
			<path class="st0" d="M54.6,33.7c-5.3-8.1-14.9-10.4-15.1-10.2c0.2-0.2,6.6,4.9,12,12.8c5.4,7.9,12.9,11.3,13.1,11.2
				C64.4,47.6,60,41.7,54.6,33.7z"/>
			<path class="st1" d="M40.4,23.7c2.5,0.9,5.6,3.2,7.1,4.7c0.7,0.2,7.7,9.1,7.5,9.2c0.1-0.1-7-8.8-7.8-8.9
				c-1.6-1.5-4.7-3.7-7.1-4.7c-0.4-0.3-0.7-0.5-0.7-0.5C39.5,23.5,39.8,23.5,40.4,23.7z"/>
		</g>
	</g>
	<g>
		<g>
			<path class="st0" d="M45.4,13.1c-6.3,7.9-15,11.5-15.3,11.3c0.3,0.2,5.6-5.9,11.8-14C48,2.2,58.8,0,59.1,0.3
				C58.8,0,51.6,5.1,45.4,13.1z"/>
			<path class="st1" d="M31,24.1c2.3-1.3,5.3-3.9,6.7-5.5c0.5-0.3,8.2-9.4,8.3-9.4c-0.1,0-8,8.9-8.5,9.2c-1.6,1.6-4.6,4.2-6.8,5.5
				c-0.4,0.4-0.6,0.6-0.6,0.6C30.1,24.4,30.4,24.3,31,24.1z"/>
		</g>
		<g>
			<path class="st0" d="M45.8,33.6C40,25.7,30.2,24,30,24.3c0.2-0.2,6.9,4.5,12.8,12.1C48.7,44,56.3,47,56.6,46.8
				C56.3,47,51.6,41.3,45.8,33.6z"/>
			<path class="st1" d="M31,24.4c2.5,0.8,5.8,2.9,7.4,4.3c0.7,0.1,8.2,8.7,8,8.7c0.1-0.1-7.5-8.4-8.3-8.5c-1.7-1.4-4.9-3.5-7.4-4.3
				c-0.4-0.3-0.7-0.4-0.7-0.4C30,24.3,30.4,24.3,31,24.4z"/>
		</g>
	</g>
	<g>
		<g>
			<path class="st0" d="M33,13.7C27.3,22,18.8,26.2,18.5,26.1c0.3,0.2,5.2-6.3,10.8-14.8C34.9,2.8,45.6-0.2,45.8,0
				C45.6-0.2,38.7,5.3,33,13.7z"/>
			<path class="st1" d="M19.3,25.7c2.2-1.5,5-4.2,6.4-6c0.5-0.3,7.5-9.9,7.6-9.9c-0.1,0-7.4,9.4-7.9,9.7c-1.5,1.7-4.3,4.5-6.4,6
				c-0.4,0.4-0.5,0.6-0.5,0.6C18.5,26.1,18.8,26,19.3,25.7z"/>
		</g>
		<g>
			<path class="st0" d="M34.8,34.2c-6.3-7.4-16.2-8.5-16.4-8.2c0.2-0.3,7.3,4,13.6,11.2c6.4,7.1,14.3,9.6,14.5,9.4
				C46.3,46.8,41.2,41.5,34.8,34.2z"/>
			<path class="st1" d="M19.4,26.1c2.6,0.6,6,2.4,7.7,3.8c0.7,0.1,8.8,8.1,8.6,8.1c0.1-0.1-8.1-7.9-8.9-7.9
				c-1.8-1.2-5.2-3.1-7.7-3.8c-0.5-0.2-0.7-0.4-0.7-0.4C18.4,26,18.8,26,19.4,26.1z"/>
		</g>
	</g>
	<g>
		<g>
			<path class="st0" d="M22.7,15C17.5,23.6,9.1,28.3,8.8,28.2c0.3,0.1,4.8-6.6,10-15.4C23.9,3.9,34.5,0.3,34.7,0.5
				C34.5,0.3,27.9,6.2,22.7,15z"/>
			<path class="st1" d="M9.7,27.7c2.1-1.6,4.8-4.5,6-6.4c0.4-0.4,7-10.4,7.1-10.3c-0.1,0-6.9,9.8-7.4,10.2c-1.4,1.8-4,4.7-6.1,6.4
				C9,28,8.8,28.2,8.8,28.2C8.8,28.2,9.1,28,9.7,27.7z"/>
		</g>
		<g>
			<path class="st0" d="M25.7,35.2c-6.8-7-16.7-7.5-16.9-7.2c0.2-0.3,7.5,3.5,14.3,10.4c6.8,6.7,14.8,8.8,15,8.6
				C37.9,47.2,32.5,42.2,25.7,35.2z"/>
			<path class="st1" d="M9.8,28.1c2.6,0.5,6.2,2.1,7.9,3.4c0.7,0,9.3,7.5,9.1,7.6c0.1-0.1-8.6-7.4-9.3-7.4c-1.8-1.1-5.4-2.8-7.9-3.3
				C9,28.1,8.8,28,8.8,28C8.8,28,9.1,28,9.8,28.1z"/>
		</g>
	</g>
	<g>
		<path class="st1" d="M108.6,34.7c-12.7-5.3-40-11.6-64-10.7c-24,0-44.7,7.2-44.4,6.8c-0.1-0.3-0.2-0.5-0.2-0.8
			c-0.2,0.4,20.5-7.2,44.6-7.2c24.1-1,51.7,5.4,64.3,11.1C111.8,35,120.1,39,120,39C120.1,39,111.5,35.6,108.6,34.7z"/>
	</g>
</g>
<g>
	<g>
		<g>
			<path class="st2" d="M72.1,36.4c1.7,10.4,4.7,19.1,4.5,19.1c0.2,0.1,6.9-9.2,5-19.8c-1.9-10.5-6.1-18.3-5.9-18.4
				C75.5,17.4,70.5,26.1,72.1,36.4z"/>
			<path class="st3" d="M74.4,36.4c0-0.2,1.1,5.7,1.5,8.6c0.3,1.8,0.5,3.6,0.7,5.4c0-2,0-3.9-0.2-5.8c-0.2-4.3-0.8-13-0.8-12.7
				c0.4,4.1,1,8.2,1.2,12.4c0.2,3.4,0.4,6.7,0,10.1c0.9-2.4,1.1-4.9,1.2-7.3c0.2-3.4-0.1-10.4-0.1-10.1c0.4,3.7,0.8,7.4,0.5,11.2
				c-0.1,1.5-0.3,3.1-0.7,4.6c0.3-0.7,0.6-1.5,0.8-2.2c1.3-3.9,1.1-12,1.1-11.8c0.4,4.5,0.6,9.7-1.5,14.4c-0.9,1.4-1.5,2.2-1.5,2.2
				c0,0-0.3-0.9-0.7-2.5C75.8,47.5,74.6,41.8,74.4,36.4z"/>
		</g>
		<g>
			<path class="st2" d="M92.7,60.2c-9.1-0.9-16.1-5-16.1-4.7c0.1-0.3,7.4-8.1,16.3-7.6c9,0.6,16.5,3.1,16.5,2.8
				C109.5,51,101.9,61.1,92.7,60.2z"/>
			<path class="st3" d="M92.7,57.2c0.2,0-5-0.7-7.4-1c-1.5-0.2-3.1-0.5-4.6-0.6c1.6-0.1,3.3-0.1,4.9-0.1c3.6,0.1,11.1-0.6,10.9-0.7
				C93,55.2,89.4,55,85.9,55c-2.8,0-5.6-0.2-8.4,0.3c2-1.1,4.1-1.4,6.1-1.6c2.8-0.4,8.7-0.8,8.5-0.9c-3.2,0-6.3,0-9.5,0.5
				c-1.3,0.2-2.5,0.4-3.8,0.9c0.6-0.4,1.2-0.7,1.8-1c3.2-1.6,10-2.3,9.8-2.3c-3.8,0.1-8.1,0.3-12,2.8c-1.2,1.1-1.9,1.8-1.9,1.8
				c0,0,0.7,0.3,2.1,0.9C83.2,56.6,88,57.7,92.7,57.2z"/>
		</g>
	</g>
	<g>
		<g>
			<g>
				<path class="st2" d="M59.7,51c0.9,10.5,3.2,19.4,3,19.4c0.2,0.1,7.6-8.4,6.5-19.1c-1.1-10.6-4.7-18.9-4.5-18.9
					C64.5,32.5,58.9,40.5,59.7,51z"/>
				<path class="st3" d="M62,51.2c0-0.2,0.7,5.8,0.8,8.7c0.1,1.8,0.2,3.7,0.2,5.5c0.2-1.9,0.3-3.9,0.3-5.8
					c0.1-4.3,0.1-12.9,0.2-12.7c0.1,4.1,0.3,8.2,0.3,12.4c0,3.4-0.1,6.7-0.8,10c1.1-2.3,1.5-4.8,1.8-7.1c0.5-3.4,0.7-10.3,0.6-10
					c0.1,3.7,0.2,7.4-0.4,11.2c-0.2,1.5-0.5,3-1,4.5c0.4-0.7,0.7-1.4,1-2.1c1.6-3.7,2-11.7,2-11.5c0,4.5-0.2,9.6-2.5,14.1
					c-1,1.3-1.7,2-1.7,2c0,0-0.2-0.9-0.5-2.6C62.5,62.3,61.8,56.6,62,51.2z"/>
			</g>
			<g>
				<path class="st2" d="M78.4,76.9c-9-1.9-15.7-6.8-15.7-6.5c0.1-0.3,8-7.2,16.9-5.6c8.9,1.6,16.2,5,16.3,4.7
					C95.9,69.8,87.5,78.9,78.4,76.9z"/>
				<path class="st3" d="M78.7,74c0.2,0-4.9-1.3-7.3-1.9c-1.5-0.4-3-0.8-4.5-1.1c1.6,0.1,3.3,0.3,4.9,0.5c3.6,0.5,11.1,0.8,10.9,0.6
					c-3.6-0.2-7.1-0.7-10.6-1.2c-2.8-0.4-5.6-0.8-8.4-0.7c2.1-0.8,4.2-0.9,6.2-0.9c2.8-0.1,8.8,0.2,8.6,0.1
					c-3.2-0.4-6.3-0.8-9.5-0.6c-1.3,0-2.6,0.1-3.9,0.5c0.6-0.3,1.3-0.6,1.9-0.8c3.3-1.2,10.1-1.1,9.9-1.1c-3.8-0.3-8.1-0.6-12.2,1.3
					c-1.3,0.9-2,1.6-2,1.6c0,0,0.7,0.4,2,1.1C69.2,72.3,73.9,73.9,78.7,74z"/>
			</g>
		</g>
		<g>
			<g>
				<path class="st2" d="M44.2,65.7c0,10.5,1.5,19.7,1.3,19.6c0.2,0.1,8.4-7.3,8.1-18c-0.2-10.7-3-19.3-2.8-19.3
					C50.6,48.1,44.2,55.3,44.2,65.7z"/>
				<path class="st3" d="M46.4,66.2c0-0.2,0.2,5.8,0.1,8.7c0,1.8-0.1,3.6-0.3,5.4c0.3-1.9,0.6-3.8,0.8-5.7
					c0.5-4.2,1.3-12.8,1.3-12.5c-0.3,4.1-0.4,8.2-0.8,12.3c-0.3,3.3-0.7,6.6-1.6,9.8c1.3-2.1,1.9-4.5,2.4-6.8
					c0.8-3.3,1.6-10.1,1.5-9.8c-0.2,3.7-0.5,7.4-1.4,11c-0.4,1.5-0.8,2.9-1.4,4.3c0.4-0.6,0.8-1.3,1.1-2c1.9-3.5,3-11.4,3-11.2
					c-0.4,4.4-1,9.5-3.8,13.7c-1.1,1.2-1.9,1.8-1.9,1.8c0,0-0.1-1-0.2-2.6C45.9,77.3,45.7,71.6,46.4,66.2z"/>
			</g>
			<g>
				<path class="st2" d="M60.6,93.9c-8.8-3.1-15-8.8-15.1-8.5c0.1-0.2,8.6-6.1,17.3-3.3c8.7,2.8,15.7,7.1,15.8,6.8
					C78.6,89.2,69.4,97,60.6,93.9z"/>
				<path class="st3" d="M61,91c0.2,0-4.8-1.9-7.1-2.8c-1.5-0.6-2.9-1.2-4.4-1.7c1.6,0.3,3.2,0.7,4.8,1.2c3.5,1,11,2.2,10.8,2.1
					c-3.6-0.6-7-1.7-10.5-2.6c-2.8-0.7-5.5-1.5-8.3-1.8c2.2-0.5,4.2-0.3,6.2-0.1c2.8,0.3,8.7,1.3,8.5,1.3c-3.1-0.8-6.2-1.6-9.4-1.9
					c-1.3-0.1-2.6-0.2-3.9,0c0.7-0.2,1.3-0.4,2-0.5c3.4-0.7,10.2,0.3,10,0.2c-3.8-0.8-8-1.7-12.3-0.3c-1.3,0.7-2.1,1.3-2.1,1.3
					c0,0,0.7,0.5,1.9,1.3C51.8,88.1,56.3,90.3,61,91z"/>
			</g>
		</g>
		<g>
			<g>
				<path class="st2" d="M27.4,78.2c-0.9,10.4-0.3,19.7-0.5,19.6c0.2,0.2,9-6.1,9.7-16.8c0.8-10.6-1.3-19.5-1.1-19.4
					C35.4,61.6,28.4,67.9,27.4,78.2z"/>
				<path class="st3" d="M29.5,79.1c0.1-0.2-0.4,5.8-0.7,8.6c-0.2,1.8-0.4,3.6-0.7,5.4c0.5-1.8,1-3.7,1.3-5.5
					c0.9-4.1,2.4-12.5,2.4-12.2c-0.6,4-1.1,8.1-1.9,12.1c-0.6,3.2-1.3,6.4-2.5,9.5c1.5-1.9,2.3-4.2,3-6.4c1.1-3.1,2.5-9.8,2.4-9.5
					c-0.5,3.6-1.1,7.3-2.3,10.7c-0.5,1.4-1,2.8-1.8,4.1c0.5-0.6,0.9-1.2,1.3-1.8c2.2-3.2,4.1-10.9,4-10.7c-0.7,4.3-1.9,9.3-5,13
					c-1.2,1-2,1.5-2,1.5c0,0,0-1,0-2.6C28.1,90,28.4,84.2,29.5,79.1z"/>
			</g>
			<g>
				<path class="st2" d="M41.2,108.3c-8.5-4.2-14.2-10.7-14.3-10.4c0.1-0.2,9.2-4.9,17.6-1c8.5,3.9,15.1,9.1,15.2,8.8
					C59.7,106,49.8,112.6,41.2,108.3z"/>
				<path class="st3" d="M42,105.5c0.2,0.1-4.6-2.5-6.8-3.7c-1.4-0.8-2.8-1.6-4.2-2.3c1.6,0.6,3.2,1.1,4.7,1.8
					c3.4,1.4,10.8,3.7,10.7,3.5c-3.5-1.1-6.9-2.6-10.3-3.9c-2.7-1.1-5.4-2.2-8.2-2.9c2.2-0.2,4.3,0.2,6.3,0.8
					c2.8,0.7,8.6,2.5,8.4,2.4c-3.1-1.2-6.1-2.4-9.2-3.1c-1.3-0.3-2.6-0.5-3.9-0.6c0.7-0.1,1.3-0.2,2-0.2c3.5-0.3,10.1,1.6,10,1.5
					c-3.7-1.3-7.9-2.7-12.2-1.9c-1.4,0.5-2.3,1-2.3,1c0,0,0.6,0.6,1.8,1.6C33,101.4,37.3,104.2,42,105.5z"/>
			</g>
		</g>
		<g>
			<path class="st3" d="M8.7,107.2L8.7,107.2c0.1,0.3,0.5,0.5,1,0.3c28.8-12.8,54.5-33.8,75-61.2c0.3-0.4,0.4-0.9,0.2-1.2l0,0
				c-0.2-0.2-0.6-0.1-1,0.3C63.5,72.6,38,93.4,9.3,106.2C8.8,106.4,8.6,106.8,8.7,107.2z"/>
		</g>
	</g>
</g>
</svg>
